M48
; DRILL file {KiCad 6.99.0-unknown-58b8d63ff8~148~ubuntu20.04.1} date Fri Mar 11 08:50:36 2022
; FORMAT={-:-/ absolute / metric / decimal}
; #@! TF.CreationDate,2022-03-11T08:50:36+05:30
; #@! TF.GenerationSoftware,Kicad,Pcbnew,6.99.0-unknown-58b8d63ff8~148~ubuntu20.04.1
; #@! TF.FileFunction,Plated,1,2,PTH
FMAT,2
METRIC
; #@! TA.AperFunction,Plated,PTH,ViaDrill
T1C0.400
; #@! TA.AperFunction,Plated,PTH,ComponentDrill
T2C0.650
; #@! TA.AperFunction,Plated,PTH,ComponentDrill
T3C1.000
%
G90
G05
T1
X99.2Y-87.6
X99.8Y-106.75
X100.15Y-87.6
X100.5Y-115.5
X101.0Y-108.3
X103.0Y-118.0
X103.05Y-109.9
X105.05Y-113.3
X109.0Y-102.95
X111.1Y-94.0
X112.2Y-97.65
X113.05Y-93.45
X113.05Y-94.35
X113.05Y-109.5
X113.05Y-110.4
X114.35Y-89.4
X116.15Y-89.4
X116.6Y-105.85
X118.55Y-103.95
X120.4Y-94.1
X122.35Y-92.55
X122.35Y-94.15
X124.1Y-87.7
X125.3Y-87.7
X125.793Y-117.569
X126.5Y-116.4
X126.5Y-118.5
X131.85Y-108.0
X131.85Y-108.85
X134.3Y-89.4
X135.25Y-89.4
X135.8Y-118.4
X138.2Y-118.15
X140.45Y-118.15
X145.9Y-93.1
X146.25Y-92.25
X150.0Y-94.5
X153.55Y-96.0
X154.05Y-100.85
X154.45Y-101.65
X155.0Y-92.7
X155.65Y-98.25
X158.15Y-100.3
X158.15Y-105.7
X158.95Y-100.3
X158.95Y-105.7
X160.5Y-100.4
X160.55Y-105.55
X161.05Y-110.35
X161.4Y-96.15
X162.4Y-96.65
T3
X125.9Y-91.19
X125.9Y-93.73
X125.9Y-96.27
X125.9Y-98.81
X125.9Y-101.35
X125.9Y-103.89
X125.9Y-106.43
X125.9Y-108.97
X125.9Y-111.51
X125.9Y-114.05
T2
X158.425Y-98.7G85X159.175Y-98.7
G05
X158.425Y-107.3G85X159.175Y-107.3
G05
X162.225Y-98.7G85X162.975Y-98.7
G05
X162.225Y-107.3G85X162.975Y-107.3
G05
T0
M30
