%FSLAX45Y45*%
G04 Gerber Fmt 4.5, Leading zero omitted, Abs format (unit mm)*
G04 Created by KiCad (PCBNEW 6.99.0-unknown-58b8d63ff8~148~ubuntu20.04.1) date 2022-03-11 08:50:34*
%MOMM*%
%LPD*%
G01*
G04 APERTURE LIST*
%TA.AperFunction,Profile*%
%ADD10C,0.100000*%
%TD*%
%ADD11C,0.200000*%
%ADD12C,0.250000*%
G04 APERTURE END LIST*
D10*
X15750000Y-8600000D02*
X15750000Y-8950000D01*
X9650000Y-12000000D02*
X16400000Y-12000000D01*
X15750000Y-8950000D02*
G75*
G03*
X16050000Y-9250000I300000J0D01*
G01*
X9000000Y-11350000D02*
X9350000Y-11350000D01*
X16400000Y-9250000D02*
X16100000Y-9250000D01*
X16100000Y-9250000D02*
X16050000Y-9250000D01*
X15750000Y-8600000D02*
X9000000Y-8600000D01*
X9650000Y-12000000D02*
X9650000Y-11650000D01*
X9000000Y-8600000D02*
X9000000Y-11350000D01*
X16400000Y-12000000D02*
X16400000Y-9250000D01*
X9650000Y-11650000D02*
G75*
G03*
X9350000Y-11350000I-300000J0D01*
G01*
D11*
D12*
X10575000Y-8750000D02*
X10825000Y-9000000D01*
X10825000Y-8750000D02*
X10575000Y-9000000D01*
X14575000Y-11600000D02*
X14825000Y-11850000D01*
X14825000Y-11600000D02*
X14575000Y-11850000D01*
D11*
X9242619Y-12315476D02*
X9242619Y-12115476D01*
X9242619Y-12115476D02*
X9290238Y-12115476D01*
X9290238Y-12115476D02*
X9318810Y-12125000D01*
X9318810Y-12125000D02*
X9337857Y-12144048D01*
X9337857Y-12144048D02*
X9347381Y-12163095D01*
X9347381Y-12163095D02*
X9356905Y-12201190D01*
X9356905Y-12201190D02*
X9356905Y-12229762D01*
X9356905Y-12229762D02*
X9347381Y-12267857D01*
X9347381Y-12267857D02*
X9337857Y-12286905D01*
X9337857Y-12286905D02*
X9318810Y-12305952D01*
X9318810Y-12305952D02*
X9290238Y-12315476D01*
X9290238Y-12315476D02*
X9242619Y-12315476D01*
X9442619Y-12315476D02*
X9442619Y-12182143D01*
X9442619Y-12220238D02*
X9452143Y-12201190D01*
X9452143Y-12201190D02*
X9461667Y-12191667D01*
X9461667Y-12191667D02*
X9480714Y-12182143D01*
X9480714Y-12182143D02*
X9499762Y-12182143D01*
X9566429Y-12315476D02*
X9566429Y-12182143D01*
X9566429Y-12115476D02*
X9556905Y-12125000D01*
X9556905Y-12125000D02*
X9566429Y-12134524D01*
X9566429Y-12134524D02*
X9575952Y-12125000D01*
X9575952Y-12125000D02*
X9566429Y-12115476D01*
X9566429Y-12115476D02*
X9566429Y-12134524D01*
X9690238Y-12315476D02*
X9671190Y-12305952D01*
X9671190Y-12305952D02*
X9661667Y-12286905D01*
X9661667Y-12286905D02*
X9661667Y-12115476D01*
X9795000Y-12315476D02*
X9775952Y-12305952D01*
X9775952Y-12305952D02*
X9766429Y-12286905D01*
X9766429Y-12286905D02*
X9766429Y-12115476D01*
X9991190Y-12315476D02*
X9991190Y-12115476D01*
X9991190Y-12115476D02*
X10057857Y-12258333D01*
X10057857Y-12258333D02*
X10124524Y-12115476D01*
X10124524Y-12115476D02*
X10124524Y-12315476D01*
X10305476Y-12315476D02*
X10305476Y-12210714D01*
X10305476Y-12210714D02*
X10295952Y-12191667D01*
X10295952Y-12191667D02*
X10276905Y-12182143D01*
X10276905Y-12182143D02*
X10238809Y-12182143D01*
X10238809Y-12182143D02*
X10219762Y-12191667D01*
X10305476Y-12305952D02*
X10286429Y-12315476D01*
X10286429Y-12315476D02*
X10238809Y-12315476D01*
X10238809Y-12315476D02*
X10219762Y-12305952D01*
X10219762Y-12305952D02*
X10210238Y-12286905D01*
X10210238Y-12286905D02*
X10210238Y-12267857D01*
X10210238Y-12267857D02*
X10219762Y-12248809D01*
X10219762Y-12248809D02*
X10238809Y-12239286D01*
X10238809Y-12239286D02*
X10286429Y-12239286D01*
X10286429Y-12239286D02*
X10305476Y-12229762D01*
X10400714Y-12182143D02*
X10400714Y-12382143D01*
X10400714Y-12191667D02*
X10419762Y-12182143D01*
X10419762Y-12182143D02*
X10457857Y-12182143D01*
X10457857Y-12182143D02*
X10476905Y-12191667D01*
X10476905Y-12191667D02*
X10486429Y-12201190D01*
X10486429Y-12201190D02*
X10495952Y-12220238D01*
X10495952Y-12220238D02*
X10495952Y-12277381D01*
X10495952Y-12277381D02*
X10486429Y-12296428D01*
X10486429Y-12296428D02*
X10476905Y-12305952D01*
X10476905Y-12305952D02*
X10457857Y-12315476D01*
X10457857Y-12315476D02*
X10419762Y-12315476D01*
X10419762Y-12315476D02*
X10400714Y-12305952D01*
X10581667Y-12296428D02*
X10591190Y-12305952D01*
X10591190Y-12305952D02*
X10581667Y-12315476D01*
X10581667Y-12315476D02*
X10572143Y-12305952D01*
X10572143Y-12305952D02*
X10581667Y-12296428D01*
X10581667Y-12296428D02*
X10581667Y-12315476D01*
X10581667Y-12191667D02*
X10591190Y-12201190D01*
X10591190Y-12201190D02*
X10581667Y-12210714D01*
X10581667Y-12210714D02*
X10572143Y-12201190D01*
X10572143Y-12201190D02*
X10581667Y-12191667D01*
X10581667Y-12191667D02*
X10581667Y-12210714D01*
X8795000Y-12545000D02*
X8995000Y-12745000D01*
X8995000Y-12545000D02*
X8795000Y-12745000D01*
X9233095Y-12554524D02*
X9242619Y-12545000D01*
X9242619Y-12545000D02*
X9261667Y-12535476D01*
X9261667Y-12535476D02*
X9309286Y-12535476D01*
X9309286Y-12535476D02*
X9328333Y-12545000D01*
X9328333Y-12545000D02*
X9337857Y-12554524D01*
X9337857Y-12554524D02*
X9347381Y-12573571D01*
X9347381Y-12573571D02*
X9347381Y-12592619D01*
X9347381Y-12592619D02*
X9337857Y-12621190D01*
X9337857Y-12621190D02*
X9223571Y-12735476D01*
X9223571Y-12735476D02*
X9347381Y-12735476D01*
X9433095Y-12716428D02*
X9442619Y-12725952D01*
X9442619Y-12725952D02*
X9433095Y-12735476D01*
X9433095Y-12735476D02*
X9423571Y-12725952D01*
X9423571Y-12725952D02*
X9433095Y-12716428D01*
X9433095Y-12716428D02*
X9433095Y-12735476D01*
X9623571Y-12535476D02*
X9528333Y-12535476D01*
X9528333Y-12535476D02*
X9518810Y-12630714D01*
X9518810Y-12630714D02*
X9528333Y-12621190D01*
X9528333Y-12621190D02*
X9547381Y-12611667D01*
X9547381Y-12611667D02*
X9595000Y-12611667D01*
X9595000Y-12611667D02*
X9614048Y-12621190D01*
X9614048Y-12621190D02*
X9623571Y-12630714D01*
X9623571Y-12630714D02*
X9633095Y-12649762D01*
X9633095Y-12649762D02*
X9633095Y-12697381D01*
X9633095Y-12697381D02*
X9623571Y-12716428D01*
X9623571Y-12716428D02*
X9614048Y-12725952D01*
X9614048Y-12725952D02*
X9595000Y-12735476D01*
X9595000Y-12735476D02*
X9547381Y-12735476D01*
X9547381Y-12735476D02*
X9528333Y-12725952D01*
X9528333Y-12725952D02*
X9518810Y-12716428D01*
X9756905Y-12535476D02*
X9775952Y-12535476D01*
X9775952Y-12535476D02*
X9795000Y-12545000D01*
X9795000Y-12545000D02*
X9804524Y-12554524D01*
X9804524Y-12554524D02*
X9814048Y-12573571D01*
X9814048Y-12573571D02*
X9823571Y-12611667D01*
X9823571Y-12611667D02*
X9823571Y-12659286D01*
X9823571Y-12659286D02*
X9814048Y-12697381D01*
X9814048Y-12697381D02*
X9804524Y-12716428D01*
X9804524Y-12716428D02*
X9795000Y-12725952D01*
X9795000Y-12725952D02*
X9775952Y-12735476D01*
X9775952Y-12735476D02*
X9756905Y-12735476D01*
X9756905Y-12735476D02*
X9737857Y-12725952D01*
X9737857Y-12725952D02*
X9728333Y-12716428D01*
X9728333Y-12716428D02*
X9718810Y-12697381D01*
X9718810Y-12697381D02*
X9709286Y-12659286D01*
X9709286Y-12659286D02*
X9709286Y-12611667D01*
X9709286Y-12611667D02*
X9718810Y-12573571D01*
X9718810Y-12573571D02*
X9728333Y-12554524D01*
X9728333Y-12554524D02*
X9737857Y-12545000D01*
X9737857Y-12545000D02*
X9756905Y-12535476D01*
X9947381Y-12535476D02*
X9966429Y-12535476D01*
X9966429Y-12535476D02*
X9985476Y-12545000D01*
X9985476Y-12545000D02*
X9995000Y-12554524D01*
X9995000Y-12554524D02*
X10004524Y-12573571D01*
X10004524Y-12573571D02*
X10014048Y-12611667D01*
X10014048Y-12611667D02*
X10014048Y-12659286D01*
X10014048Y-12659286D02*
X10004524Y-12697381D01*
X10004524Y-12697381D02*
X9995000Y-12716428D01*
X9995000Y-12716428D02*
X9985476Y-12725952D01*
X9985476Y-12725952D02*
X9966429Y-12735476D01*
X9966429Y-12735476D02*
X9947381Y-12735476D01*
X9947381Y-12735476D02*
X9928333Y-12725952D01*
X9928333Y-12725952D02*
X9918810Y-12716428D01*
X9918810Y-12716428D02*
X9909286Y-12697381D01*
X9909286Y-12697381D02*
X9899762Y-12659286D01*
X9899762Y-12659286D02*
X9899762Y-12611667D01*
X9899762Y-12611667D02*
X9909286Y-12573571D01*
X9909286Y-12573571D02*
X9918810Y-12554524D01*
X9918810Y-12554524D02*
X9928333Y-12545000D01*
X9928333Y-12545000D02*
X9947381Y-12535476D01*
X10099762Y-12735476D02*
X10099762Y-12602143D01*
X10099762Y-12621190D02*
X10109286Y-12611667D01*
X10109286Y-12611667D02*
X10128333Y-12602143D01*
X10128333Y-12602143D02*
X10156905Y-12602143D01*
X10156905Y-12602143D02*
X10175952Y-12611667D01*
X10175952Y-12611667D02*
X10185476Y-12630714D01*
X10185476Y-12630714D02*
X10185476Y-12735476D01*
X10185476Y-12630714D02*
X10195000Y-12611667D01*
X10195000Y-12611667D02*
X10214048Y-12602143D01*
X10214048Y-12602143D02*
X10242619Y-12602143D01*
X10242619Y-12602143D02*
X10261667Y-12611667D01*
X10261667Y-12611667D02*
X10271191Y-12630714D01*
X10271191Y-12630714D02*
X10271191Y-12735476D01*
X10366429Y-12735476D02*
X10366429Y-12602143D01*
X10366429Y-12621190D02*
X10375952Y-12611667D01*
X10375952Y-12611667D02*
X10395000Y-12602143D01*
X10395000Y-12602143D02*
X10423572Y-12602143D01*
X10423572Y-12602143D02*
X10442619Y-12611667D01*
X10442619Y-12611667D02*
X10452143Y-12630714D01*
X10452143Y-12630714D02*
X10452143Y-12735476D01*
X10452143Y-12630714D02*
X10461667Y-12611667D01*
X10461667Y-12611667D02*
X10480714Y-12602143D01*
X10480714Y-12602143D02*
X10509286Y-12602143D01*
X10509286Y-12602143D02*
X10528333Y-12611667D01*
X10528333Y-12611667D02*
X10537857Y-12630714D01*
X10537857Y-12630714D02*
X10537857Y-12735476D01*
X10895952Y-12525952D02*
X10724524Y-12783095D01*
X11120714Y-12535476D02*
X11139762Y-12535476D01*
X11139762Y-12535476D02*
X11158810Y-12545000D01*
X11158810Y-12545000D02*
X11168333Y-12554524D01*
X11168333Y-12554524D02*
X11177857Y-12573571D01*
X11177857Y-12573571D02*
X11187381Y-12611667D01*
X11187381Y-12611667D02*
X11187381Y-12659286D01*
X11187381Y-12659286D02*
X11177857Y-12697381D01*
X11177857Y-12697381D02*
X11168333Y-12716428D01*
X11168333Y-12716428D02*
X11158810Y-12725952D01*
X11158810Y-12725952D02*
X11139762Y-12735476D01*
X11139762Y-12735476D02*
X11120714Y-12735476D01*
X11120714Y-12735476D02*
X11101667Y-12725952D01*
X11101667Y-12725952D02*
X11092143Y-12716428D01*
X11092143Y-12716428D02*
X11082619Y-12697381D01*
X11082619Y-12697381D02*
X11073095Y-12659286D01*
X11073095Y-12659286D02*
X11073095Y-12611667D01*
X11073095Y-12611667D02*
X11082619Y-12573571D01*
X11082619Y-12573571D02*
X11092143Y-12554524D01*
X11092143Y-12554524D02*
X11101667Y-12545000D01*
X11101667Y-12545000D02*
X11120714Y-12535476D01*
X11273095Y-12716428D02*
X11282619Y-12725952D01*
X11282619Y-12725952D02*
X11273095Y-12735476D01*
X11273095Y-12735476D02*
X11263571Y-12725952D01*
X11263571Y-12725952D02*
X11273095Y-12716428D01*
X11273095Y-12716428D02*
X11273095Y-12735476D01*
X11406429Y-12535476D02*
X11425476Y-12535476D01*
X11425476Y-12535476D02*
X11444524Y-12545000D01*
X11444524Y-12545000D02*
X11454048Y-12554524D01*
X11454048Y-12554524D02*
X11463571Y-12573571D01*
X11463571Y-12573571D02*
X11473095Y-12611667D01*
X11473095Y-12611667D02*
X11473095Y-12659286D01*
X11473095Y-12659286D02*
X11463571Y-12697381D01*
X11463571Y-12697381D02*
X11454048Y-12716428D01*
X11454048Y-12716428D02*
X11444524Y-12725952D01*
X11444524Y-12725952D02*
X11425476Y-12735476D01*
X11425476Y-12735476D02*
X11406429Y-12735476D01*
X11406429Y-12735476D02*
X11387381Y-12725952D01*
X11387381Y-12725952D02*
X11377857Y-12716428D01*
X11377857Y-12716428D02*
X11368333Y-12697381D01*
X11368333Y-12697381D02*
X11358810Y-12659286D01*
X11358810Y-12659286D02*
X11358810Y-12611667D01*
X11358810Y-12611667D02*
X11368333Y-12573571D01*
X11368333Y-12573571D02*
X11377857Y-12554524D01*
X11377857Y-12554524D02*
X11387381Y-12545000D01*
X11387381Y-12545000D02*
X11406429Y-12535476D01*
X11568333Y-12735476D02*
X11606429Y-12735476D01*
X11606429Y-12735476D02*
X11625476Y-12725952D01*
X11625476Y-12725952D02*
X11635000Y-12716428D01*
X11635000Y-12716428D02*
X11654048Y-12687857D01*
X11654048Y-12687857D02*
X11663571Y-12649762D01*
X11663571Y-12649762D02*
X11663571Y-12573571D01*
X11663571Y-12573571D02*
X11654048Y-12554524D01*
X11654048Y-12554524D02*
X11644524Y-12545000D01*
X11644524Y-12545000D02*
X11625476Y-12535476D01*
X11625476Y-12535476D02*
X11587381Y-12535476D01*
X11587381Y-12535476D02*
X11568333Y-12545000D01*
X11568333Y-12545000D02*
X11558810Y-12554524D01*
X11558810Y-12554524D02*
X11549286Y-12573571D01*
X11549286Y-12573571D02*
X11549286Y-12621190D01*
X11549286Y-12621190D02*
X11558810Y-12640238D01*
X11558810Y-12640238D02*
X11568333Y-12649762D01*
X11568333Y-12649762D02*
X11587381Y-12659286D01*
X11587381Y-12659286D02*
X11625476Y-12659286D01*
X11625476Y-12659286D02*
X11644524Y-12649762D01*
X11644524Y-12649762D02*
X11654048Y-12640238D01*
X11654048Y-12640238D02*
X11663571Y-12621190D01*
X11777857Y-12621190D02*
X11758810Y-12611667D01*
X11758810Y-12611667D02*
X11749286Y-12602143D01*
X11749286Y-12602143D02*
X11739762Y-12583095D01*
X11739762Y-12583095D02*
X11739762Y-12573571D01*
X11739762Y-12573571D02*
X11749286Y-12554524D01*
X11749286Y-12554524D02*
X11758810Y-12545000D01*
X11758810Y-12545000D02*
X11777857Y-12535476D01*
X11777857Y-12535476D02*
X11815952Y-12535476D01*
X11815952Y-12535476D02*
X11835000Y-12545000D01*
X11835000Y-12545000D02*
X11844524Y-12554524D01*
X11844524Y-12554524D02*
X11854048Y-12573571D01*
X11854048Y-12573571D02*
X11854048Y-12583095D01*
X11854048Y-12583095D02*
X11844524Y-12602143D01*
X11844524Y-12602143D02*
X11835000Y-12611667D01*
X11835000Y-12611667D02*
X11815952Y-12621190D01*
X11815952Y-12621190D02*
X11777857Y-12621190D01*
X11777857Y-12621190D02*
X11758810Y-12630714D01*
X11758810Y-12630714D02*
X11749286Y-12640238D01*
X11749286Y-12640238D02*
X11739762Y-12659286D01*
X11739762Y-12659286D02*
X11739762Y-12697381D01*
X11739762Y-12697381D02*
X11749286Y-12716428D01*
X11749286Y-12716428D02*
X11758810Y-12725952D01*
X11758810Y-12725952D02*
X11777857Y-12735476D01*
X11777857Y-12735476D02*
X11815952Y-12735476D01*
X11815952Y-12735476D02*
X11835000Y-12725952D01*
X11835000Y-12725952D02*
X11844524Y-12716428D01*
X11844524Y-12716428D02*
X11854048Y-12697381D01*
X11854048Y-12697381D02*
X11854048Y-12659286D01*
X11854048Y-12659286D02*
X11844524Y-12640238D01*
X11844524Y-12640238D02*
X11835000Y-12630714D01*
X11835000Y-12630714D02*
X11815952Y-12621190D01*
X12025476Y-12602143D02*
X12025476Y-12735476D01*
X11977857Y-12525952D02*
X11930238Y-12668809D01*
X11930238Y-12668809D02*
X12054048Y-12668809D01*
X12120714Y-12535476D02*
X12120714Y-12573571D01*
X12196905Y-12535476D02*
X12196905Y-12573571D01*
X12459762Y-12811667D02*
X12450238Y-12802143D01*
X12450238Y-12802143D02*
X12431191Y-12773571D01*
X12431191Y-12773571D02*
X12421667Y-12754524D01*
X12421667Y-12754524D02*
X12412143Y-12725952D01*
X12412143Y-12725952D02*
X12402619Y-12678333D01*
X12402619Y-12678333D02*
X12402619Y-12640238D01*
X12402619Y-12640238D02*
X12412143Y-12592619D01*
X12412143Y-12592619D02*
X12421667Y-12564048D01*
X12421667Y-12564048D02*
X12431191Y-12545000D01*
X12431191Y-12545000D02*
X12450238Y-12516428D01*
X12450238Y-12516428D02*
X12459762Y-12506905D01*
X12526429Y-12554524D02*
X12535952Y-12545000D01*
X12535952Y-12545000D02*
X12555000Y-12535476D01*
X12555000Y-12535476D02*
X12602619Y-12535476D01*
X12602619Y-12535476D02*
X12621667Y-12545000D01*
X12621667Y-12545000D02*
X12631191Y-12554524D01*
X12631191Y-12554524D02*
X12640714Y-12573571D01*
X12640714Y-12573571D02*
X12640714Y-12592619D01*
X12640714Y-12592619D02*
X12631191Y-12621190D01*
X12631191Y-12621190D02*
X12516905Y-12735476D01*
X12516905Y-12735476D02*
X12640714Y-12735476D01*
X12846429Y-12735476D02*
X12846429Y-12535476D01*
X12932143Y-12735476D02*
X12932143Y-12630714D01*
X12932143Y-12630714D02*
X12922619Y-12611667D01*
X12922619Y-12611667D02*
X12903572Y-12602143D01*
X12903572Y-12602143D02*
X12875000Y-12602143D01*
X12875000Y-12602143D02*
X12855952Y-12611667D01*
X12855952Y-12611667D02*
X12846429Y-12621190D01*
X13055952Y-12735476D02*
X13036905Y-12725952D01*
X13036905Y-12725952D02*
X13027381Y-12716428D01*
X13027381Y-12716428D02*
X13017857Y-12697381D01*
X13017857Y-12697381D02*
X13017857Y-12640238D01*
X13017857Y-12640238D02*
X13027381Y-12621190D01*
X13027381Y-12621190D02*
X13036905Y-12611667D01*
X13036905Y-12611667D02*
X13055952Y-12602143D01*
X13055952Y-12602143D02*
X13084524Y-12602143D01*
X13084524Y-12602143D02*
X13103572Y-12611667D01*
X13103572Y-12611667D02*
X13113095Y-12621190D01*
X13113095Y-12621190D02*
X13122619Y-12640238D01*
X13122619Y-12640238D02*
X13122619Y-12697381D01*
X13122619Y-12697381D02*
X13113095Y-12716428D01*
X13113095Y-12716428D02*
X13103572Y-12725952D01*
X13103572Y-12725952D02*
X13084524Y-12735476D01*
X13084524Y-12735476D02*
X13055952Y-12735476D01*
X13236905Y-12735476D02*
X13217857Y-12725952D01*
X13217857Y-12725952D02*
X13208333Y-12706905D01*
X13208333Y-12706905D02*
X13208333Y-12535476D01*
X13389286Y-12725952D02*
X13370238Y-12735476D01*
X13370238Y-12735476D02*
X13332143Y-12735476D01*
X13332143Y-12735476D02*
X13313095Y-12725952D01*
X13313095Y-12725952D02*
X13303572Y-12706905D01*
X13303572Y-12706905D02*
X13303572Y-12630714D01*
X13303572Y-12630714D02*
X13313095Y-12611667D01*
X13313095Y-12611667D02*
X13332143Y-12602143D01*
X13332143Y-12602143D02*
X13370238Y-12602143D01*
X13370238Y-12602143D02*
X13389286Y-12611667D01*
X13389286Y-12611667D02*
X13398810Y-12630714D01*
X13398810Y-12630714D02*
X13398810Y-12649762D01*
X13398810Y-12649762D02*
X13303572Y-12668809D01*
X13475000Y-12725952D02*
X13494048Y-12735476D01*
X13494048Y-12735476D02*
X13532143Y-12735476D01*
X13532143Y-12735476D02*
X13551191Y-12725952D01*
X13551191Y-12725952D02*
X13560714Y-12706905D01*
X13560714Y-12706905D02*
X13560714Y-12697381D01*
X13560714Y-12697381D02*
X13551191Y-12678333D01*
X13551191Y-12678333D02*
X13532143Y-12668809D01*
X13532143Y-12668809D02*
X13503572Y-12668809D01*
X13503572Y-12668809D02*
X13484524Y-12659286D01*
X13484524Y-12659286D02*
X13475000Y-12640238D01*
X13475000Y-12640238D02*
X13475000Y-12630714D01*
X13475000Y-12630714D02*
X13484524Y-12611667D01*
X13484524Y-12611667D02*
X13503572Y-12602143D01*
X13503572Y-12602143D02*
X13532143Y-12602143D01*
X13532143Y-12602143D02*
X13551191Y-12611667D01*
X13627381Y-12811667D02*
X13636905Y-12802143D01*
X13636905Y-12802143D02*
X13655953Y-12773571D01*
X13655953Y-12773571D02*
X13665476Y-12754524D01*
X13665476Y-12754524D02*
X13675000Y-12725952D01*
X13675000Y-12725952D02*
X13684524Y-12678333D01*
X13684524Y-12678333D02*
X13684524Y-12640238D01*
X13684524Y-12640238D02*
X13675000Y-12592619D01*
X13675000Y-12592619D02*
X13665476Y-12564048D01*
X13665476Y-12564048D02*
X13655953Y-12545000D01*
X13655953Y-12545000D02*
X13636905Y-12516428D01*
X13636905Y-12516428D02*
X13627381Y-12506905D01*
X13956905Y-12811667D02*
X13947381Y-12802143D01*
X13947381Y-12802143D02*
X13928333Y-12773571D01*
X13928333Y-12773571D02*
X13918810Y-12754524D01*
X13918810Y-12754524D02*
X13909286Y-12725952D01*
X13909286Y-12725952D02*
X13899762Y-12678333D01*
X13899762Y-12678333D02*
X13899762Y-12640238D01*
X13899762Y-12640238D02*
X13909286Y-12592619D01*
X13909286Y-12592619D02*
X13918810Y-12564048D01*
X13918810Y-12564048D02*
X13928333Y-12545000D01*
X13928333Y-12545000D02*
X13947381Y-12516428D01*
X13947381Y-12516428D02*
X13956905Y-12506905D01*
X14033095Y-12602143D02*
X14033095Y-12735476D01*
X14033095Y-12621190D02*
X14042619Y-12611667D01*
X14042619Y-12611667D02*
X14061667Y-12602143D01*
X14061667Y-12602143D02*
X14090238Y-12602143D01*
X14090238Y-12602143D02*
X14109286Y-12611667D01*
X14109286Y-12611667D02*
X14118810Y-12630714D01*
X14118810Y-12630714D02*
X14118810Y-12735476D01*
X14242619Y-12735476D02*
X14223572Y-12725952D01*
X14223572Y-12725952D02*
X14214048Y-12716428D01*
X14214048Y-12716428D02*
X14204524Y-12697381D01*
X14204524Y-12697381D02*
X14204524Y-12640238D01*
X14204524Y-12640238D02*
X14214048Y-12621190D01*
X14214048Y-12621190D02*
X14223572Y-12611667D01*
X14223572Y-12611667D02*
X14242619Y-12602143D01*
X14242619Y-12602143D02*
X14271191Y-12602143D01*
X14271191Y-12602143D02*
X14290238Y-12611667D01*
X14290238Y-12611667D02*
X14299762Y-12621190D01*
X14299762Y-12621190D02*
X14309286Y-12640238D01*
X14309286Y-12640238D02*
X14309286Y-12697381D01*
X14309286Y-12697381D02*
X14299762Y-12716428D01*
X14299762Y-12716428D02*
X14290238Y-12725952D01*
X14290238Y-12725952D02*
X14271191Y-12735476D01*
X14271191Y-12735476D02*
X14242619Y-12735476D01*
X14366429Y-12602143D02*
X14442619Y-12602143D01*
X14395000Y-12535476D02*
X14395000Y-12706905D01*
X14395000Y-12706905D02*
X14404524Y-12725952D01*
X14404524Y-12725952D02*
X14423572Y-12735476D01*
X14423572Y-12735476D02*
X14442619Y-12735476D01*
X14629286Y-12602143D02*
X14629286Y-12802143D01*
X14629286Y-12611667D02*
X14648333Y-12602143D01*
X14648333Y-12602143D02*
X14686429Y-12602143D01*
X14686429Y-12602143D02*
X14705476Y-12611667D01*
X14705476Y-12611667D02*
X14715000Y-12621190D01*
X14715000Y-12621190D02*
X14724524Y-12640238D01*
X14724524Y-12640238D02*
X14724524Y-12697381D01*
X14724524Y-12697381D02*
X14715000Y-12716428D01*
X14715000Y-12716428D02*
X14705476Y-12725952D01*
X14705476Y-12725952D02*
X14686429Y-12735476D01*
X14686429Y-12735476D02*
X14648333Y-12735476D01*
X14648333Y-12735476D02*
X14629286Y-12725952D01*
X14838810Y-12735476D02*
X14819762Y-12725952D01*
X14819762Y-12725952D02*
X14810238Y-12706905D01*
X14810238Y-12706905D02*
X14810238Y-12535476D01*
X15000714Y-12735476D02*
X15000714Y-12630714D01*
X15000714Y-12630714D02*
X14991191Y-12611667D01*
X14991191Y-12611667D02*
X14972143Y-12602143D01*
X14972143Y-12602143D02*
X14934048Y-12602143D01*
X14934048Y-12602143D02*
X14915000Y-12611667D01*
X15000714Y-12725952D02*
X14981667Y-12735476D01*
X14981667Y-12735476D02*
X14934048Y-12735476D01*
X14934048Y-12735476D02*
X14915000Y-12725952D01*
X14915000Y-12725952D02*
X14905476Y-12706905D01*
X14905476Y-12706905D02*
X14905476Y-12687857D01*
X14905476Y-12687857D02*
X14915000Y-12668809D01*
X14915000Y-12668809D02*
X14934048Y-12659286D01*
X14934048Y-12659286D02*
X14981667Y-12659286D01*
X14981667Y-12659286D02*
X15000714Y-12649762D01*
X15067381Y-12602143D02*
X15143572Y-12602143D01*
X15095953Y-12535476D02*
X15095953Y-12706905D01*
X15095953Y-12706905D02*
X15105476Y-12725952D01*
X15105476Y-12725952D02*
X15124524Y-12735476D01*
X15124524Y-12735476D02*
X15143572Y-12735476D01*
X15286429Y-12725952D02*
X15267381Y-12735476D01*
X15267381Y-12735476D02*
X15229286Y-12735476D01*
X15229286Y-12735476D02*
X15210238Y-12725952D01*
X15210238Y-12725952D02*
X15200714Y-12706905D01*
X15200714Y-12706905D02*
X15200714Y-12630714D01*
X15200714Y-12630714D02*
X15210238Y-12611667D01*
X15210238Y-12611667D02*
X15229286Y-12602143D01*
X15229286Y-12602143D02*
X15267381Y-12602143D01*
X15267381Y-12602143D02*
X15286429Y-12611667D01*
X15286429Y-12611667D02*
X15295953Y-12630714D01*
X15295953Y-12630714D02*
X15295953Y-12649762D01*
X15295953Y-12649762D02*
X15200714Y-12668809D01*
X15467381Y-12735476D02*
X15467381Y-12535476D01*
X15467381Y-12725952D02*
X15448334Y-12735476D01*
X15448334Y-12735476D02*
X15410238Y-12735476D01*
X15410238Y-12735476D02*
X15391191Y-12725952D01*
X15391191Y-12725952D02*
X15381667Y-12716428D01*
X15381667Y-12716428D02*
X15372143Y-12697381D01*
X15372143Y-12697381D02*
X15372143Y-12640238D01*
X15372143Y-12640238D02*
X15381667Y-12621190D01*
X15381667Y-12621190D02*
X15391191Y-12611667D01*
X15391191Y-12611667D02*
X15410238Y-12602143D01*
X15410238Y-12602143D02*
X15448334Y-12602143D01*
X15448334Y-12602143D02*
X15467381Y-12611667D01*
X15543572Y-12811667D02*
X15553095Y-12802143D01*
X15553095Y-12802143D02*
X15572143Y-12773571D01*
X15572143Y-12773571D02*
X15581667Y-12754524D01*
X15581667Y-12754524D02*
X15591191Y-12725952D01*
X15591191Y-12725952D02*
X15600714Y-12678333D01*
X15600714Y-12678333D02*
X15600714Y-12640238D01*
X15600714Y-12640238D02*
X15591191Y-12592619D01*
X15591191Y-12592619D02*
X15581667Y-12564048D01*
X15581667Y-12564048D02*
X15572143Y-12545000D01*
X15572143Y-12545000D02*
X15553095Y-12516428D01*
X15553095Y-12516428D02*
X15543572Y-12506905D01*
M02*
