G04 #@! TF.GenerationSoftware,KiCad,Pcbnew,6.99.0-unknown-58b8d63ff8~148~ubuntu20.04.1*
G04 #@! TF.CreationDate,2022-03-11T08:50:32+05:30*
G04 #@! TF.ProjectId,espc3-vario,65737063-332d-4766-9172-696f2e6b6963,rev?*
G04 #@! TF.SameCoordinates,Original*
G04 #@! TF.FileFunction,Legend,Top*
G04 #@! TF.FilePolarity,Positive*
%FSLAX46Y46*%
G04 Gerber Fmt 4.6, Leading zero omitted, Abs format (unit mm)*
G04 Created by KiCad (PCBNEW 6.99.0-unknown-58b8d63ff8~148~ubuntu20.04.1) date 2022-03-11 08:50:32*
%MOMM*%
%LPD*%
G01*
G04 APERTURE LIST*
G04 Aperture macros list*
%AMRoundRect*
0 Rectangle with rounded corners*
0 $1 Rounding radius*
0 $2 $3 $4 $5 $6 $7 $8 $9 X,Y pos of 4 corners*
0 Add a 4 corners polygon primitive as box body*
4,1,4,$2,$3,$4,$5,$6,$7,$8,$9,$2,$3,0*
0 Add four circle primitives for the rounded corners*
1,1,$1+$1,$2,$3*
1,1,$1+$1,$4,$5*
1,1,$1+$1,$6,$7*
1,1,$1+$1,$8,$9*
0 Add four rect primitives between the rounded corners*
20,1,$1+$1,$2,$3,$4,$5,0*
20,1,$1+$1,$4,$5,$6,$7,0*
20,1,$1+$1,$6,$7,$8,$9,0*
20,1,$1+$1,$8,$9,$2,$3,0*%
G04 Aperture macros list end*
%ADD10C,0.150000*%
%ADD11C,0.120000*%
%ADD12RoundRect,0.250001X0.462499X0.624999X-0.462499X0.624999X-0.462499X-0.624999X0.462499X-0.624999X0*%
%ADD13RoundRect,0.250000X0.412500X0.650000X-0.412500X0.650000X-0.412500X-0.650000X0.412500X-0.650000X0*%
%ADD14RoundRect,0.250000X-0.350000X-0.450000X0.350000X-0.450000X0.350000X0.450000X-0.350000X0.450000X0*%
%ADD15RoundRect,0.250000X-0.337500X-0.475000X0.337500X-0.475000X0.337500X0.475000X-0.337500X0.475000X0*%
%ADD16RoundRect,0.275000X0.275000X-0.625000X0.275000X0.625000X-0.275000X0.625000X-0.275000X-0.625000X0*%
%ADD17RoundRect,0.275000X-0.625000X-0.275000X0.625000X-0.275000X0.625000X0.275000X-0.625000X0.275000X0*%
%ADD18RoundRect,0.250000X0.350000X0.450000X-0.350000X0.450000X-0.350000X-0.450000X0.350000X-0.450000X0*%
%ADD19R,1.700000X1.700000*%
%ADD20O,1.700000X1.700000*%
%ADD21C,2.500000*%
%ADD22RoundRect,0.250000X-0.475000X0.337500X-0.475000X-0.337500X0.475000X-0.337500X0.475000X0.337500X0*%
%ADD23RoundRect,0.381000X0.762000X0.381000X-0.762000X0.381000X-0.762000X-0.381000X0.762000X-0.381000X0*%
%ADD24RoundRect,0.050000X-0.325000X0.780000X-0.325000X-0.780000X0.325000X-0.780000X0.325000X0.780000X0*%
%ADD25RoundRect,0.050000X0.750000X-0.400000X0.750000X0.400000X-0.750000X0.400000X-0.750000X-0.400000X0*%
%ADD26R,1.500000X0.700000*%
%ADD27RoundRect,0.050000X0.750000X-0.350000X0.750000X0.350000X-0.750000X0.350000X-0.750000X-0.350000X0*%
%ADD28O,1.800000X1.000000*%
%ADD29RoundRect,0.375000X0.375000X-0.875000X0.375000X0.875000X-0.375000X0.875000X-0.375000X-0.875000X0*%
%ADD30RoundRect,0.250000X-0.450000X0.350000X-0.450000X-0.350000X0.450000X-0.350000X0.450000X0.350000X0*%
%ADD31RoundRect,0.050000X0.400000X-0.950000X0.400000X0.950000X-0.400000X0.950000X-0.400000X-0.950000X0*%
%ADD32RoundRect,0.250000X-0.412500X-0.650000X0.412500X-0.650000X0.412500X0.650000X-0.412500X0.650000X0*%
G04 APERTURE END LIST*
D10*
X158197619Y-95852380D02*
X158197619Y-94852380D01*
X158197619Y-95233333D02*
X158292857Y-95185714D01*
X158292857Y-95185714D02*
X158483333Y-95185714D01*
X158483333Y-95185714D02*
X158578571Y-95233333D01*
X158578571Y-95233333D02*
X158626190Y-95280952D01*
X158626190Y-95280952D02*
X158673809Y-95376190D01*
X158673809Y-95376190D02*
X158673809Y-95661904D01*
X158673809Y-95661904D02*
X158626190Y-95757142D01*
X158626190Y-95757142D02*
X158578571Y-95804761D01*
X158578571Y-95804761D02*
X158483333Y-95852380D01*
X158483333Y-95852380D02*
X158292857Y-95852380D01*
X158292857Y-95852380D02*
X158197619Y-95804761D01*
X159530952Y-95852380D02*
X159530952Y-95328571D01*
X159530952Y-95328571D02*
X159483333Y-95233333D01*
X159483333Y-95233333D02*
X159388095Y-95185714D01*
X159388095Y-95185714D02*
X159197619Y-95185714D01*
X159197619Y-95185714D02*
X159102381Y-95233333D01*
X159530952Y-95804761D02*
X159435714Y-95852380D01*
X159435714Y-95852380D02*
X159197619Y-95852380D01*
X159197619Y-95852380D02*
X159102381Y-95804761D01*
X159102381Y-95804761D02*
X159054762Y-95709523D01*
X159054762Y-95709523D02*
X159054762Y-95614285D01*
X159054762Y-95614285D02*
X159102381Y-95519047D01*
X159102381Y-95519047D02*
X159197619Y-95471428D01*
X159197619Y-95471428D02*
X159435714Y-95471428D01*
X159435714Y-95471428D02*
X159530952Y-95423809D01*
X159864286Y-95185714D02*
X160245238Y-95185714D01*
X160007143Y-94852380D02*
X160007143Y-95709523D01*
X160007143Y-95709523D02*
X160054762Y-95804761D01*
X160054762Y-95804761D02*
X160150000Y-95852380D01*
X160150000Y-95852380D02*
X160245238Y-95852380D01*
X144000000Y-89000000D02*
X124000000Y-89000000D01*
X124000000Y-115900000D02*
X144000000Y-115900000D01*
X90500000Y-94000000D02*
X90500000Y-110000000D01*
X98000000Y-94000000D02*
X90500000Y-94000000D01*
X114500000Y-94000000D02*
X114500000Y-94700000D01*
X114000000Y-94000000D02*
X114500000Y-94000000D01*
X114500000Y-109150000D02*
X114500000Y-110000000D01*
X114500000Y-110000000D02*
X114000000Y-110000000D01*
X90500000Y-110000000D02*
X98000000Y-110000000D01*
X144000000Y-115900000D02*
X144000000Y-89000000D01*
X124000000Y-89000000D02*
X124000000Y-115900000D01*
X98404762Y-95785714D02*
X98785714Y-95785714D01*
X98547619Y-95452380D02*
X98547619Y-96309523D01*
X98547619Y-96309523D02*
X98595238Y-96404761D01*
X98595238Y-96404761D02*
X98690476Y-96452380D01*
X98690476Y-96452380D02*
X98785714Y-96452380D01*
X99023810Y-96452380D02*
X99547619Y-95785714D01*
X99023810Y-95785714D02*
X99547619Y-96452380D01*
X160380951Y-96571428D02*
X159619047Y-96571428D01*
X96250000Y-91361904D02*
X96202380Y-91457142D01*
X96202380Y-91457142D02*
X96202380Y-91599999D01*
X96202380Y-91599999D02*
X96250000Y-91742856D01*
X96250000Y-91742856D02*
X96345238Y-91838094D01*
X96345238Y-91838094D02*
X96440476Y-91885713D01*
X96440476Y-91885713D02*
X96630952Y-91933332D01*
X96630952Y-91933332D02*
X96773809Y-91933332D01*
X96773809Y-91933332D02*
X96964285Y-91885713D01*
X96964285Y-91885713D02*
X97059523Y-91838094D01*
X97059523Y-91838094D02*
X97154761Y-91742856D01*
X97154761Y-91742856D02*
X97202380Y-91599999D01*
X97202380Y-91599999D02*
X97202380Y-91504761D01*
X97202380Y-91504761D02*
X97154761Y-91361904D01*
X97154761Y-91361904D02*
X97107142Y-91314285D01*
X97107142Y-91314285D02*
X96773809Y-91314285D01*
X96773809Y-91314285D02*
X96773809Y-91504761D01*
X97202380Y-90885713D02*
X96202380Y-90885713D01*
X96202380Y-90885713D02*
X97202380Y-90314285D01*
X97202380Y-90314285D02*
X96202380Y-90314285D01*
X97202380Y-89838094D02*
X96202380Y-89838094D01*
X96202380Y-89838094D02*
X96202380Y-89599999D01*
X96202380Y-89599999D02*
X96250000Y-89457142D01*
X96250000Y-89457142D02*
X96345238Y-89361904D01*
X96345238Y-89361904D02*
X96440476Y-89314285D01*
X96440476Y-89314285D02*
X96630952Y-89266666D01*
X96630952Y-89266666D02*
X96773809Y-89266666D01*
X96773809Y-89266666D02*
X96964285Y-89314285D01*
X96964285Y-89314285D02*
X97059523Y-89361904D01*
X97059523Y-89361904D02*
X97154761Y-89457142D01*
X97154761Y-89457142D02*
X97202380Y-89599999D01*
X97202380Y-89599999D02*
X97202380Y-89838094D01*
X112166667Y-98452380D02*
X112833333Y-98452380D01*
X112833333Y-98452380D02*
X112404762Y-99452380D01*
X104809523Y-96452380D02*
X104238095Y-96452380D01*
X104523809Y-96452380D02*
X104523809Y-95452380D01*
X104523809Y-95452380D02*
X104428571Y-95595238D01*
X104428571Y-95595238D02*
X104333333Y-95690476D01*
X104333333Y-95690476D02*
X104238095Y-95738095D01*
X105380952Y-95880952D02*
X105285714Y-95833333D01*
X105285714Y-95833333D02*
X105238095Y-95785714D01*
X105238095Y-95785714D02*
X105190476Y-95690476D01*
X105190476Y-95690476D02*
X105190476Y-95642857D01*
X105190476Y-95642857D02*
X105238095Y-95547619D01*
X105238095Y-95547619D02*
X105285714Y-95500000D01*
X105285714Y-95500000D02*
X105380952Y-95452380D01*
X105380952Y-95452380D02*
X105571428Y-95452380D01*
X105571428Y-95452380D02*
X105666666Y-95500000D01*
X105666666Y-95500000D02*
X105714285Y-95547619D01*
X105714285Y-95547619D02*
X105761904Y-95642857D01*
X105761904Y-95642857D02*
X105761904Y-95690476D01*
X105761904Y-95690476D02*
X105714285Y-95785714D01*
X105714285Y-95785714D02*
X105666666Y-95833333D01*
X105666666Y-95833333D02*
X105571428Y-95880952D01*
X105571428Y-95880952D02*
X105380952Y-95880952D01*
X105380952Y-95880952D02*
X105285714Y-95928571D01*
X105285714Y-95928571D02*
X105238095Y-95976190D01*
X105238095Y-95976190D02*
X105190476Y-96071428D01*
X105190476Y-96071428D02*
X105190476Y-96261904D01*
X105190476Y-96261904D02*
X105238095Y-96357142D01*
X105238095Y-96357142D02*
X105285714Y-96404761D01*
X105285714Y-96404761D02*
X105380952Y-96452380D01*
X105380952Y-96452380D02*
X105571428Y-96452380D01*
X105571428Y-96452380D02*
X105666666Y-96404761D01*
X105666666Y-96404761D02*
X105714285Y-96357142D01*
X105714285Y-96357142D02*
X105761904Y-96261904D01*
X105761904Y-96261904D02*
X105761904Y-96071428D01*
X105761904Y-96071428D02*
X105714285Y-95976190D01*
X105714285Y-95976190D02*
X105666666Y-95928571D01*
X105666666Y-95928571D02*
X105571428Y-95880952D01*
X91052380Y-90961904D02*
X91052380Y-90390476D01*
X92052380Y-90676190D02*
X91052380Y-90676190D01*
X91052380Y-90152380D02*
X92052380Y-89485714D01*
X91052380Y-89485714D02*
X92052380Y-90152380D01*
X102738095Y-108404761D02*
X102642857Y-108452380D01*
X102642857Y-108452380D02*
X102452381Y-108452380D01*
X102452381Y-108452380D02*
X102357143Y-108404761D01*
X102357143Y-108404761D02*
X102309524Y-108309523D01*
X102309524Y-108309523D02*
X102309524Y-107928571D01*
X102309524Y-107928571D02*
X102357143Y-107833333D01*
X102357143Y-107833333D02*
X102452381Y-107785714D01*
X102452381Y-107785714D02*
X102642857Y-107785714D01*
X102642857Y-107785714D02*
X102738095Y-107833333D01*
X102738095Y-107833333D02*
X102785714Y-107928571D01*
X102785714Y-107928571D02*
X102785714Y-108023809D01*
X102785714Y-108023809D02*
X102309524Y-108119047D01*
X103214286Y-107785714D02*
X103214286Y-108452380D01*
X103214286Y-107880952D02*
X103261905Y-107833333D01*
X103261905Y-107833333D02*
X103357143Y-107785714D01*
X103357143Y-107785714D02*
X103500000Y-107785714D01*
X103500000Y-107785714D02*
X103595238Y-107833333D01*
X103595238Y-107833333D02*
X103642857Y-107928571D01*
X103642857Y-107928571D02*
X103642857Y-108452380D01*
X104714286Y-107547619D02*
X104761905Y-107500000D01*
X104761905Y-107500000D02*
X104857143Y-107452380D01*
X104857143Y-107452380D02*
X105095238Y-107452380D01*
X105095238Y-107452380D02*
X105190476Y-107500000D01*
X105190476Y-107500000D02*
X105238095Y-107547619D01*
X105238095Y-107547619D02*
X105285714Y-107642857D01*
X105285714Y-107642857D02*
X105285714Y-107738095D01*
X105285714Y-107738095D02*
X105238095Y-107880952D01*
X105238095Y-107880952D02*
X104666667Y-108452380D01*
X104666667Y-108452380D02*
X105285714Y-108452380D01*
X112809523Y-95285714D02*
X112809523Y-96095238D01*
X112809523Y-96095238D02*
X112761904Y-96190476D01*
X112761904Y-96190476D02*
X112714285Y-96238095D01*
X112714285Y-96238095D02*
X112619047Y-96285714D01*
X112619047Y-96285714D02*
X112476190Y-96285714D01*
X112476190Y-96285714D02*
X112380952Y-96238095D01*
X112809523Y-95904761D02*
X112714285Y-95952380D01*
X112714285Y-95952380D02*
X112523809Y-95952380D01*
X112523809Y-95952380D02*
X112428571Y-95904761D01*
X112428571Y-95904761D02*
X112380952Y-95857142D01*
X112380952Y-95857142D02*
X112333333Y-95761904D01*
X112333333Y-95761904D02*
X112333333Y-95476190D01*
X112333333Y-95476190D02*
X112380952Y-95380952D01*
X112380952Y-95380952D02*
X112428571Y-95333333D01*
X112428571Y-95333333D02*
X112523809Y-95285714D01*
X112523809Y-95285714D02*
X112714285Y-95285714D01*
X112714285Y-95285714D02*
X112809523Y-95333333D01*
X113285714Y-95285714D02*
X113285714Y-95952380D01*
X113285714Y-95380952D02*
X113333333Y-95333333D01*
X113333333Y-95333333D02*
X113428571Y-95285714D01*
X113428571Y-95285714D02*
X113571428Y-95285714D01*
X113571428Y-95285714D02*
X113666666Y-95333333D01*
X113666666Y-95333333D02*
X113714285Y-95428571D01*
X113714285Y-95428571D02*
X113714285Y-95952380D01*
X114619047Y-95952380D02*
X114619047Y-94952380D01*
X114619047Y-95904761D02*
X114523809Y-95952380D01*
X114523809Y-95952380D02*
X114333333Y-95952380D01*
X114333333Y-95952380D02*
X114238095Y-95904761D01*
X114238095Y-95904761D02*
X114190476Y-95857142D01*
X114190476Y-95857142D02*
X114142857Y-95761904D01*
X114142857Y-95761904D02*
X114142857Y-95476190D01*
X114142857Y-95476190D02*
X114190476Y-95380952D01*
X114190476Y-95380952D02*
X114238095Y-95333333D01*
X114238095Y-95333333D02*
X114333333Y-95285714D01*
X114333333Y-95285714D02*
X114523809Y-95285714D01*
X114523809Y-95285714D02*
X114619047Y-95333333D01*
X106666667Y-107452380D02*
X107285714Y-107452380D01*
X107285714Y-107452380D02*
X106952381Y-107833333D01*
X106952381Y-107833333D02*
X107095238Y-107833333D01*
X107095238Y-107833333D02*
X107190476Y-107880952D01*
X107190476Y-107880952D02*
X107238095Y-107928571D01*
X107238095Y-107928571D02*
X107285714Y-108023809D01*
X107285714Y-108023809D02*
X107285714Y-108261904D01*
X107285714Y-108261904D02*
X107238095Y-108357142D01*
X107238095Y-108357142D02*
X107190476Y-108404761D01*
X107190476Y-108404761D02*
X107095238Y-108452380D01*
X107095238Y-108452380D02*
X106809524Y-108452380D01*
X106809524Y-108452380D02*
X106714286Y-108404761D01*
X106714286Y-108404761D02*
X106666667Y-108357142D01*
X102809523Y-96452380D02*
X102238095Y-96452380D01*
X102523809Y-96452380D02*
X102523809Y-95452380D01*
X102523809Y-95452380D02*
X102428571Y-95595238D01*
X102428571Y-95595238D02*
X102333333Y-95690476D01*
X102333333Y-95690476D02*
X102238095Y-95738095D01*
X103285714Y-96452380D02*
X103476190Y-96452380D01*
X103476190Y-96452380D02*
X103571428Y-96404761D01*
X103571428Y-96404761D02*
X103619047Y-96357142D01*
X103619047Y-96357142D02*
X103714285Y-96214285D01*
X103714285Y-96214285D02*
X103761904Y-96023809D01*
X103761904Y-96023809D02*
X103761904Y-95642857D01*
X103761904Y-95642857D02*
X103714285Y-95547619D01*
X103714285Y-95547619D02*
X103666666Y-95500000D01*
X103666666Y-95500000D02*
X103571428Y-95452380D01*
X103571428Y-95452380D02*
X103380952Y-95452380D01*
X103380952Y-95452380D02*
X103285714Y-95500000D01*
X103285714Y-95500000D02*
X103238095Y-95547619D01*
X103238095Y-95547619D02*
X103190476Y-95642857D01*
X103190476Y-95642857D02*
X103190476Y-95880952D01*
X103190476Y-95880952D02*
X103238095Y-95976190D01*
X103238095Y-95976190D02*
X103285714Y-96023809D01*
X103285714Y-96023809D02*
X103380952Y-96071428D01*
X103380952Y-96071428D02*
X103571428Y-96071428D01*
X103571428Y-96071428D02*
X103666666Y-96023809D01*
X103666666Y-96023809D02*
X103714285Y-95976190D01*
X103714285Y-95976190D02*
X103761904Y-95880952D01*
X100523809Y-96452380D02*
X100523809Y-95785714D01*
X100523809Y-95976190D02*
X100571428Y-95880952D01*
X100571428Y-95880952D02*
X100619047Y-95833333D01*
X100619047Y-95833333D02*
X100714285Y-95785714D01*
X100714285Y-95785714D02*
X100809523Y-95785714D01*
X101047619Y-96452380D02*
X101571428Y-95785714D01*
X101047619Y-95785714D02*
X101571428Y-96452380D01*
X112404762Y-107785714D02*
X112642857Y-108452380D01*
X112642857Y-108452380D02*
X112880952Y-107785714D01*
X113690476Y-108404761D02*
X113595238Y-108452380D01*
X113595238Y-108452380D02*
X113404762Y-108452380D01*
X113404762Y-108452380D02*
X113309524Y-108404761D01*
X113309524Y-108404761D02*
X113261905Y-108357142D01*
X113261905Y-108357142D02*
X113214286Y-108261904D01*
X113214286Y-108261904D02*
X113214286Y-107976190D01*
X113214286Y-107976190D02*
X113261905Y-107880952D01*
X113261905Y-107880952D02*
X113309524Y-107833333D01*
X113309524Y-107833333D02*
X113404762Y-107785714D01*
X113404762Y-107785714D02*
X113595238Y-107785714D01*
X113595238Y-107785714D02*
X113690476Y-107833333D01*
X114547619Y-108404761D02*
X114452381Y-108452380D01*
X114452381Y-108452380D02*
X114261905Y-108452380D01*
X114261905Y-108452380D02*
X114166667Y-108404761D01*
X114166667Y-108404761D02*
X114119048Y-108357142D01*
X114119048Y-108357142D02*
X114071429Y-108261904D01*
X114071429Y-108261904D02*
X114071429Y-107976190D01*
X114071429Y-107976190D02*
X114119048Y-107880952D01*
X114119048Y-107880952D02*
X114166667Y-107833333D01*
X114166667Y-107833333D02*
X114261905Y-107785714D01*
X114261905Y-107785714D02*
X114452381Y-107785714D01*
X114452381Y-107785714D02*
X114547619Y-107833333D01*
X112238095Y-107452380D02*
X112761904Y-106785714D01*
X112238095Y-106785714D02*
X112761904Y-107452380D01*
X98952381Y-107452380D02*
X99047619Y-107452380D01*
X99047619Y-107452380D02*
X99142857Y-107500000D01*
X99142857Y-107500000D02*
X99190476Y-107547619D01*
X99190476Y-107547619D02*
X99238095Y-107642857D01*
X99238095Y-107642857D02*
X99285714Y-107833333D01*
X99285714Y-107833333D02*
X99285714Y-108071428D01*
X99285714Y-108071428D02*
X99238095Y-108261904D01*
X99238095Y-108261904D02*
X99190476Y-108357142D01*
X99190476Y-108357142D02*
X99142857Y-108404761D01*
X99142857Y-108404761D02*
X99047619Y-108452380D01*
X99047619Y-108452380D02*
X98952381Y-108452380D01*
X98952381Y-108452380D02*
X98857143Y-108404761D01*
X98857143Y-108404761D02*
X98809524Y-108357142D01*
X98809524Y-108357142D02*
X98761905Y-108261904D01*
X98761905Y-108261904D02*
X98714286Y-108071428D01*
X98714286Y-108071428D02*
X98714286Y-107833333D01*
X98714286Y-107833333D02*
X98761905Y-107642857D01*
X98761905Y-107642857D02*
X98809524Y-107547619D01*
X98809524Y-107547619D02*
X98857143Y-107500000D01*
X98857143Y-107500000D02*
X98952381Y-107452380D01*
X112238095Y-103452380D02*
X112761904Y-102785714D01*
X112238095Y-102785714D02*
X112761904Y-103452380D01*
X101285714Y-107452380D02*
X100714286Y-107452380D01*
X101000000Y-107452380D02*
X101000000Y-106452380D01*
X101000000Y-106452380D02*
X100904762Y-106595238D01*
X100904762Y-106595238D02*
X100809524Y-106690476D01*
X100809524Y-106690476D02*
X100714286Y-106738095D01*
X108809523Y-96452380D02*
X108238095Y-96452380D01*
X108523809Y-96452380D02*
X108523809Y-95452380D01*
X108523809Y-95452380D02*
X108428571Y-95595238D01*
X108428571Y-95595238D02*
X108333333Y-95690476D01*
X108333333Y-95690476D02*
X108238095Y-95738095D01*
X109428571Y-95452380D02*
X109523809Y-95452380D01*
X109523809Y-95452380D02*
X109619047Y-95500000D01*
X109619047Y-95500000D02*
X109666666Y-95547619D01*
X109666666Y-95547619D02*
X109714285Y-95642857D01*
X109714285Y-95642857D02*
X109761904Y-95833333D01*
X109761904Y-95833333D02*
X109761904Y-96071428D01*
X109761904Y-96071428D02*
X109714285Y-96261904D01*
X109714285Y-96261904D02*
X109666666Y-96357142D01*
X109666666Y-96357142D02*
X109619047Y-96404761D01*
X109619047Y-96404761D02*
X109523809Y-96452380D01*
X109523809Y-96452380D02*
X109428571Y-96452380D01*
X109428571Y-96452380D02*
X109333333Y-96404761D01*
X109333333Y-96404761D02*
X109285714Y-96357142D01*
X109285714Y-96357142D02*
X109238095Y-96261904D01*
X109238095Y-96261904D02*
X109190476Y-96071428D01*
X109190476Y-96071428D02*
X109190476Y-95833333D01*
X109190476Y-95833333D02*
X109238095Y-95642857D01*
X109238095Y-95642857D02*
X109285714Y-95547619D01*
X109285714Y-95547619D02*
X109333333Y-95500000D01*
X109333333Y-95500000D02*
X109428571Y-95452380D01*
X112238095Y-97452380D02*
X112761904Y-96785714D01*
X112238095Y-96785714D02*
X112761904Y-97452380D01*
X109190476Y-107785714D02*
X109190476Y-108452380D01*
X108952381Y-107404761D02*
X108714286Y-108119047D01*
X108714286Y-108119047D02*
X109333333Y-108119047D01*
X111238095Y-107452380D02*
X110761905Y-107452380D01*
X110761905Y-107452380D02*
X110714286Y-107928571D01*
X110714286Y-107928571D02*
X110761905Y-107880952D01*
X110761905Y-107880952D02*
X110857143Y-107833333D01*
X110857143Y-107833333D02*
X111095238Y-107833333D01*
X111095238Y-107833333D02*
X111190476Y-107880952D01*
X111190476Y-107880952D02*
X111238095Y-107928571D01*
X111238095Y-107928571D02*
X111285714Y-108023809D01*
X111285714Y-108023809D02*
X111285714Y-108261904D01*
X111285714Y-108261904D02*
X111238095Y-108357142D01*
X111238095Y-108357142D02*
X111190476Y-108404761D01*
X111190476Y-108404761D02*
X111095238Y-108452380D01*
X111095238Y-108452380D02*
X110857143Y-108452380D01*
X110857143Y-108452380D02*
X110761905Y-108404761D01*
X110761905Y-108404761D02*
X110714286Y-108357142D01*
X94652380Y-90316666D02*
X94176190Y-90649999D01*
X94652380Y-90888094D02*
X93652380Y-90888094D01*
X93652380Y-90888094D02*
X93652380Y-90507142D01*
X93652380Y-90507142D02*
X93700000Y-90411904D01*
X93700000Y-90411904D02*
X93747619Y-90364285D01*
X93747619Y-90364285D02*
X93842857Y-90316666D01*
X93842857Y-90316666D02*
X93985714Y-90316666D01*
X93985714Y-90316666D02*
X94080952Y-90364285D01*
X94080952Y-90364285D02*
X94128571Y-90411904D01*
X94128571Y-90411904D02*
X94176190Y-90507142D01*
X94176190Y-90507142D02*
X94176190Y-90888094D01*
X93652380Y-89983332D02*
X94652380Y-89316666D01*
X93652380Y-89316666D02*
X94652380Y-89983332D01*
X106809524Y-96452380D02*
X107000000Y-96452380D01*
X107000000Y-96452380D02*
X107095238Y-96404761D01*
X107095238Y-96404761D02*
X107142857Y-96357142D01*
X107142857Y-96357142D02*
X107238095Y-96214285D01*
X107238095Y-96214285D02*
X107285714Y-96023809D01*
X107285714Y-96023809D02*
X107285714Y-95642857D01*
X107285714Y-95642857D02*
X107238095Y-95547619D01*
X107238095Y-95547619D02*
X107190476Y-95500000D01*
X107190476Y-95500000D02*
X107095238Y-95452380D01*
X107095238Y-95452380D02*
X106904762Y-95452380D01*
X106904762Y-95452380D02*
X106809524Y-95500000D01*
X106809524Y-95500000D02*
X106761905Y-95547619D01*
X106761905Y-95547619D02*
X106714286Y-95642857D01*
X106714286Y-95642857D02*
X106714286Y-95880952D01*
X106714286Y-95880952D02*
X106761905Y-95976190D01*
X106761905Y-95976190D02*
X106809524Y-96023809D01*
X106809524Y-96023809D02*
X106904762Y-96071428D01*
X106904762Y-96071428D02*
X107095238Y-96071428D01*
X107095238Y-96071428D02*
X107190476Y-96023809D01*
X107190476Y-96023809D02*
X107238095Y-95976190D01*
X107238095Y-95976190D02*
X107285714Y-95880952D01*
X112238095Y-105452380D02*
X112761904Y-104785714D01*
X112238095Y-104785714D02*
X112761904Y-105452380D01*
X112690476Y-100452380D02*
X112500000Y-100452380D01*
X112500000Y-100452380D02*
X112404762Y-100500000D01*
X112404762Y-100500000D02*
X112357143Y-100547619D01*
X112357143Y-100547619D02*
X112261905Y-100690476D01*
X112261905Y-100690476D02*
X112214286Y-100880952D01*
X112214286Y-100880952D02*
X112214286Y-101261904D01*
X112214286Y-101261904D02*
X112261905Y-101357142D01*
X112261905Y-101357142D02*
X112309524Y-101404761D01*
X112309524Y-101404761D02*
X112404762Y-101452380D01*
X112404762Y-101452380D02*
X112595238Y-101452380D01*
X112595238Y-101452380D02*
X112690476Y-101404761D01*
X112690476Y-101404761D02*
X112738095Y-101357142D01*
X112738095Y-101357142D02*
X112785714Y-101261904D01*
X112785714Y-101261904D02*
X112785714Y-101023809D01*
X112785714Y-101023809D02*
X112738095Y-100928571D01*
X112738095Y-100928571D02*
X112690476Y-100880952D01*
X112690476Y-100880952D02*
X112595238Y-100833333D01*
X112595238Y-100833333D02*
X112404762Y-100833333D01*
X112404762Y-100833333D02*
X112309524Y-100880952D01*
X112309524Y-100880952D02*
X112261905Y-100928571D01*
X112261905Y-100928571D02*
X112214286Y-101023809D01*
X110904762Y-95880952D02*
X110809524Y-95833333D01*
X110809524Y-95833333D02*
X110761905Y-95785714D01*
X110761905Y-95785714D02*
X110714286Y-95690476D01*
X110714286Y-95690476D02*
X110714286Y-95642857D01*
X110714286Y-95642857D02*
X110761905Y-95547619D01*
X110761905Y-95547619D02*
X110809524Y-95500000D01*
X110809524Y-95500000D02*
X110904762Y-95452380D01*
X110904762Y-95452380D02*
X111095238Y-95452380D01*
X111095238Y-95452380D02*
X111190476Y-95500000D01*
X111190476Y-95500000D02*
X111238095Y-95547619D01*
X111238095Y-95547619D02*
X111285714Y-95642857D01*
X111285714Y-95642857D02*
X111285714Y-95690476D01*
X111285714Y-95690476D02*
X111238095Y-95785714D01*
X111238095Y-95785714D02*
X111190476Y-95833333D01*
X111190476Y-95833333D02*
X111095238Y-95880952D01*
X111095238Y-95880952D02*
X110904762Y-95880952D01*
X110904762Y-95880952D02*
X110809524Y-95928571D01*
X110809524Y-95928571D02*
X110761905Y-95976190D01*
X110761905Y-95976190D02*
X110714286Y-96071428D01*
X110714286Y-96071428D02*
X110714286Y-96261904D01*
X110714286Y-96261904D02*
X110761905Y-96357142D01*
X110761905Y-96357142D02*
X110809524Y-96404761D01*
X110809524Y-96404761D02*
X110904762Y-96452380D01*
X110904762Y-96452380D02*
X111095238Y-96452380D01*
X111095238Y-96452380D02*
X111190476Y-96404761D01*
X111190476Y-96404761D02*
X111238095Y-96357142D01*
X111238095Y-96357142D02*
X111285714Y-96261904D01*
X111285714Y-96261904D02*
X111285714Y-96071428D01*
X111285714Y-96071428D02*
X111238095Y-95976190D01*
X111238095Y-95976190D02*
X111190476Y-95928571D01*
X111190476Y-95928571D02*
X111095238Y-95880952D01*
X160380951Y-94071428D02*
X159619047Y-94071428D01*
X159999999Y-94452380D02*
X159999999Y-93690476D01*
X152316666Y-105698571D02*
X151983333Y-105698571D01*
X151983333Y-106222380D02*
X151983333Y-105222380D01*
X151983333Y-105222380D02*
X152459523Y-105222380D01*
X153364285Y-106222380D02*
X152792857Y-106222380D01*
X153078571Y-106222380D02*
X153078571Y-105222380D01*
X153078571Y-105222380D02*
X152983333Y-105365238D01*
X152983333Y-105365238D02*
X152888095Y-105460476D01*
X152888095Y-105460476D02*
X152792857Y-105508095D01*
X145857142Y-91157142D02*
X145809523Y-91204761D01*
X145809523Y-91204761D02*
X145666666Y-91252380D01*
X145666666Y-91252380D02*
X145571428Y-91252380D01*
X145571428Y-91252380D02*
X145428571Y-91204761D01*
X145428571Y-91204761D02*
X145333333Y-91109523D01*
X145333333Y-91109523D02*
X145285714Y-91014285D01*
X145285714Y-91014285D02*
X145238095Y-90823809D01*
X145238095Y-90823809D02*
X145238095Y-90680952D01*
X145238095Y-90680952D02*
X145285714Y-90490476D01*
X145285714Y-90490476D02*
X145333333Y-90395238D01*
X145333333Y-90395238D02*
X145428571Y-90300000D01*
X145428571Y-90300000D02*
X145571428Y-90252380D01*
X145571428Y-90252380D02*
X145666666Y-90252380D01*
X145666666Y-90252380D02*
X145809523Y-90300000D01*
X145809523Y-90300000D02*
X145857142Y-90347619D01*
X146809523Y-91252380D02*
X146238095Y-91252380D01*
X146523809Y-91252380D02*
X146523809Y-90252380D01*
X146523809Y-90252380D02*
X146428571Y-90395238D01*
X146428571Y-90395238D02*
X146333333Y-90490476D01*
X146333333Y-90490476D02*
X146238095Y-90538095D01*
X147714285Y-90252380D02*
X147238095Y-90252380D01*
X147238095Y-90252380D02*
X147190476Y-90728571D01*
X147190476Y-90728571D02*
X147238095Y-90680952D01*
X147238095Y-90680952D02*
X147333333Y-90633333D01*
X147333333Y-90633333D02*
X147571428Y-90633333D01*
X147571428Y-90633333D02*
X147666666Y-90680952D01*
X147666666Y-90680952D02*
X147714285Y-90728571D01*
X147714285Y-90728571D02*
X147761904Y-90823809D01*
X147761904Y-90823809D02*
X147761904Y-91061904D01*
X147761904Y-91061904D02*
X147714285Y-91157142D01*
X147714285Y-91157142D02*
X147666666Y-91204761D01*
X147666666Y-91204761D02*
X147571428Y-91252380D01*
X147571428Y-91252380D02*
X147333333Y-91252380D01*
X147333333Y-91252380D02*
X147238095Y-91204761D01*
X147238095Y-91204761D02*
X147190476Y-91157142D01*
X147511904Y-92345238D02*
X147607142Y-92297619D01*
X147607142Y-92297619D02*
X147797618Y-92297619D01*
X147797618Y-92297619D02*
X147892856Y-92345238D01*
X147892856Y-92345238D02*
X147940475Y-92392857D01*
X147940475Y-92392857D02*
X147988094Y-92488095D01*
X147988094Y-92488095D02*
X147988094Y-92773809D01*
X147988094Y-92773809D02*
X147940475Y-92869047D01*
X147940475Y-92869047D02*
X147892856Y-92916666D01*
X147892856Y-92916666D02*
X147797618Y-92964285D01*
X147797618Y-92964285D02*
X147607142Y-92964285D01*
X147607142Y-92964285D02*
X147511904Y-92916666D01*
X142333333Y-118952380D02*
X142000000Y-118476190D01*
X141761905Y-118952380D02*
X141761905Y-117952380D01*
X141761905Y-117952380D02*
X142142857Y-117952380D01*
X142142857Y-117952380D02*
X142238095Y-118000000D01*
X142238095Y-118000000D02*
X142285714Y-118047619D01*
X142285714Y-118047619D02*
X142333333Y-118142857D01*
X142333333Y-118142857D02*
X142333333Y-118285714D01*
X142333333Y-118285714D02*
X142285714Y-118380952D01*
X142285714Y-118380952D02*
X142238095Y-118428571D01*
X142238095Y-118428571D02*
X142142857Y-118476190D01*
X142142857Y-118476190D02*
X141761905Y-118476190D01*
X142904762Y-118380952D02*
X142809524Y-118333333D01*
X142809524Y-118333333D02*
X142761905Y-118285714D01*
X142761905Y-118285714D02*
X142714286Y-118190476D01*
X142714286Y-118190476D02*
X142714286Y-118142857D01*
X142714286Y-118142857D02*
X142761905Y-118047619D01*
X142761905Y-118047619D02*
X142809524Y-118000000D01*
X142809524Y-118000000D02*
X142904762Y-117952380D01*
X142904762Y-117952380D02*
X143095238Y-117952380D01*
X143095238Y-117952380D02*
X143190476Y-118000000D01*
X143190476Y-118000000D02*
X143238095Y-118047619D01*
X143238095Y-118047619D02*
X143285714Y-118142857D01*
X143285714Y-118142857D02*
X143285714Y-118190476D01*
X143285714Y-118190476D02*
X143238095Y-118285714D01*
X143238095Y-118285714D02*
X143190476Y-118333333D01*
X143190476Y-118333333D02*
X143095238Y-118380952D01*
X143095238Y-118380952D02*
X142904762Y-118380952D01*
X142904762Y-118380952D02*
X142809524Y-118428571D01*
X142809524Y-118428571D02*
X142761905Y-118476190D01*
X142761905Y-118476190D02*
X142714286Y-118571428D01*
X142714286Y-118571428D02*
X142714286Y-118761904D01*
X142714286Y-118761904D02*
X142761905Y-118857142D01*
X142761905Y-118857142D02*
X142809524Y-118904761D01*
X142809524Y-118904761D02*
X142904762Y-118952380D01*
X142904762Y-118952380D02*
X143095238Y-118952380D01*
X143095238Y-118952380D02*
X143190476Y-118904761D01*
X143190476Y-118904761D02*
X143238095Y-118857142D01*
X143238095Y-118857142D02*
X143285714Y-118761904D01*
X143285714Y-118761904D02*
X143285714Y-118571428D01*
X143285714Y-118571428D02*
X143238095Y-118476190D01*
X143238095Y-118476190D02*
X143190476Y-118428571D01*
X143190476Y-118428571D02*
X143095238Y-118380952D01*
X139178571Y-118502380D02*
X139178571Y-117835714D01*
X139178571Y-118026190D02*
X139226190Y-117930952D01*
X139226190Y-117930952D02*
X139273809Y-117883333D01*
X139273809Y-117883333D02*
X139369047Y-117835714D01*
X139369047Y-117835714D02*
X139464285Y-117835714D01*
X159057142Y-112457142D02*
X159009523Y-112504761D01*
X159009523Y-112504761D02*
X158866666Y-112552380D01*
X158866666Y-112552380D02*
X158771428Y-112552380D01*
X158771428Y-112552380D02*
X158628571Y-112504761D01*
X158628571Y-112504761D02*
X158533333Y-112409523D01*
X158533333Y-112409523D02*
X158485714Y-112314285D01*
X158485714Y-112314285D02*
X158438095Y-112123809D01*
X158438095Y-112123809D02*
X158438095Y-111980952D01*
X158438095Y-111980952D02*
X158485714Y-111790476D01*
X158485714Y-111790476D02*
X158533333Y-111695238D01*
X158533333Y-111695238D02*
X158628571Y-111600000D01*
X158628571Y-111600000D02*
X158771428Y-111552380D01*
X158771428Y-111552380D02*
X158866666Y-111552380D01*
X158866666Y-111552380D02*
X159009523Y-111600000D01*
X159009523Y-111600000D02*
X159057142Y-111647619D01*
X160009523Y-112552380D02*
X159438095Y-112552380D01*
X159723809Y-112552380D02*
X159723809Y-111552380D01*
X159723809Y-111552380D02*
X159628571Y-111695238D01*
X159628571Y-111695238D02*
X159533333Y-111790476D01*
X159533333Y-111790476D02*
X159438095Y-111838095D01*
X160342857Y-111552380D02*
X160961904Y-111552380D01*
X160961904Y-111552380D02*
X160628571Y-111933333D01*
X160628571Y-111933333D02*
X160771428Y-111933333D01*
X160771428Y-111933333D02*
X160866666Y-111980952D01*
X160866666Y-111980952D02*
X160914285Y-112028571D01*
X160914285Y-112028571D02*
X160961904Y-112123809D01*
X160961904Y-112123809D02*
X160961904Y-112361904D01*
X160961904Y-112361904D02*
X160914285Y-112457142D01*
X160914285Y-112457142D02*
X160866666Y-112504761D01*
X160866666Y-112504761D02*
X160771428Y-112552380D01*
X160771428Y-112552380D02*
X160485714Y-112552380D01*
X160485714Y-112552380D02*
X160390476Y-112504761D01*
X160390476Y-112504761D02*
X160342857Y-112457142D01*
X160138095Y-110654761D02*
X160042857Y-110702380D01*
X160042857Y-110702380D02*
X159852381Y-110702380D01*
X159852381Y-110702380D02*
X159757143Y-110654761D01*
X159757143Y-110654761D02*
X159709524Y-110607142D01*
X159709524Y-110607142D02*
X159661905Y-110511904D01*
X159661905Y-110511904D02*
X159661905Y-110226190D01*
X159661905Y-110226190D02*
X159709524Y-110130952D01*
X159709524Y-110130952D02*
X159757143Y-110083333D01*
X159757143Y-110083333D02*
X159852381Y-110035714D01*
X159852381Y-110035714D02*
X160042857Y-110035714D01*
X160042857Y-110035714D02*
X160138095Y-110083333D01*
X121183333Y-96202380D02*
X120850000Y-95726190D01*
X120611905Y-96202380D02*
X120611905Y-95202380D01*
X120611905Y-95202380D02*
X120992857Y-95202380D01*
X120992857Y-95202380D02*
X121088095Y-95250000D01*
X121088095Y-95250000D02*
X121135714Y-95297619D01*
X121135714Y-95297619D02*
X121183333Y-95392857D01*
X121183333Y-95392857D02*
X121183333Y-95535714D01*
X121183333Y-95535714D02*
X121135714Y-95630952D01*
X121135714Y-95630952D02*
X121088095Y-95678571D01*
X121088095Y-95678571D02*
X120992857Y-95726190D01*
X120992857Y-95726190D02*
X120611905Y-95726190D01*
X121516667Y-95202380D02*
X122183333Y-95202380D01*
X122183333Y-95202380D02*
X121754762Y-96202380D01*
X121521428Y-93747619D02*
X121521428Y-94414285D01*
X121521428Y-94223809D02*
X121473809Y-94319047D01*
X121473809Y-94319047D02*
X121426190Y-94366666D01*
X121426190Y-94366666D02*
X121330952Y-94414285D01*
X121330952Y-94414285D02*
X121235714Y-94414285D01*
X106733333Y-113902380D02*
X106400000Y-113426190D01*
X106161905Y-113902380D02*
X106161905Y-112902380D01*
X106161905Y-112902380D02*
X106542857Y-112902380D01*
X106542857Y-112902380D02*
X106638095Y-112950000D01*
X106638095Y-112950000D02*
X106685714Y-112997619D01*
X106685714Y-112997619D02*
X106733333Y-113092857D01*
X106733333Y-113092857D02*
X106733333Y-113235714D01*
X106733333Y-113235714D02*
X106685714Y-113330952D01*
X106685714Y-113330952D02*
X106638095Y-113378571D01*
X106638095Y-113378571D02*
X106542857Y-113426190D01*
X106542857Y-113426190D02*
X106161905Y-113426190D01*
X107685714Y-113902380D02*
X107114286Y-113902380D01*
X107400000Y-113902380D02*
X107400000Y-112902380D01*
X107400000Y-112902380D02*
X107304762Y-113045238D01*
X107304762Y-113045238D02*
X107209524Y-113140476D01*
X107209524Y-113140476D02*
X107114286Y-113188095D01*
X104171428Y-113047619D02*
X104171428Y-113714285D01*
X104171428Y-113523809D02*
X104123809Y-113619047D01*
X104123809Y-113619047D02*
X104076190Y-113666666D01*
X104076190Y-113666666D02*
X103980952Y-113714285D01*
X103980952Y-113714285D02*
X103885714Y-113714285D01*
X127409524Y-96554761D02*
X127552381Y-96602380D01*
X127552381Y-96602380D02*
X127790476Y-96602380D01*
X127790476Y-96602380D02*
X127885714Y-96554761D01*
X127885714Y-96554761D02*
X127933333Y-96507142D01*
X127933333Y-96507142D02*
X127980952Y-96411904D01*
X127980952Y-96411904D02*
X127980952Y-96316666D01*
X127980952Y-96316666D02*
X127933333Y-96221428D01*
X127933333Y-96221428D02*
X127885714Y-96173809D01*
X127885714Y-96173809D02*
X127790476Y-96126190D01*
X127790476Y-96126190D02*
X127600000Y-96078571D01*
X127600000Y-96078571D02*
X127504762Y-96030952D01*
X127504762Y-96030952D02*
X127457143Y-95983333D01*
X127457143Y-95983333D02*
X127409524Y-95888095D01*
X127409524Y-95888095D02*
X127409524Y-95792857D01*
X127409524Y-95792857D02*
X127457143Y-95697619D01*
X127457143Y-95697619D02*
X127504762Y-95650000D01*
X127504762Y-95650000D02*
X127600000Y-95602380D01*
X127600000Y-95602380D02*
X127838095Y-95602380D01*
X127838095Y-95602380D02*
X127980952Y-95650000D01*
X128980952Y-96507142D02*
X128933333Y-96554761D01*
X128933333Y-96554761D02*
X128790476Y-96602380D01*
X128790476Y-96602380D02*
X128695238Y-96602380D01*
X128695238Y-96602380D02*
X128552381Y-96554761D01*
X128552381Y-96554761D02*
X128457143Y-96459523D01*
X128457143Y-96459523D02*
X128409524Y-96364285D01*
X128409524Y-96364285D02*
X128361905Y-96173809D01*
X128361905Y-96173809D02*
X128361905Y-96030952D01*
X128361905Y-96030952D02*
X128409524Y-95840476D01*
X128409524Y-95840476D02*
X128457143Y-95745238D01*
X128457143Y-95745238D02*
X128552381Y-95650000D01*
X128552381Y-95650000D02*
X128695238Y-95602380D01*
X128695238Y-95602380D02*
X128790476Y-95602380D01*
X128790476Y-95602380D02*
X128933333Y-95650000D01*
X128933333Y-95650000D02*
X128980952Y-95697619D01*
X129885714Y-96602380D02*
X129409524Y-96602380D01*
X129409524Y-96602380D02*
X129409524Y-95602380D01*
X128038095Y-93150000D02*
X127942857Y-93102380D01*
X127942857Y-93102380D02*
X127800000Y-93102380D01*
X127800000Y-93102380D02*
X127657143Y-93150000D01*
X127657143Y-93150000D02*
X127561905Y-93245238D01*
X127561905Y-93245238D02*
X127514286Y-93340476D01*
X127514286Y-93340476D02*
X127466667Y-93530952D01*
X127466667Y-93530952D02*
X127466667Y-93673809D01*
X127466667Y-93673809D02*
X127514286Y-93864285D01*
X127514286Y-93864285D02*
X127561905Y-93959523D01*
X127561905Y-93959523D02*
X127657143Y-94054761D01*
X127657143Y-94054761D02*
X127800000Y-94102380D01*
X127800000Y-94102380D02*
X127895238Y-94102380D01*
X127895238Y-94102380D02*
X128038095Y-94054761D01*
X128038095Y-94054761D02*
X128085714Y-94007142D01*
X128085714Y-94007142D02*
X128085714Y-93673809D01*
X128085714Y-93673809D02*
X127895238Y-93673809D01*
X128514286Y-94102380D02*
X128514286Y-93102380D01*
X128514286Y-93102380D02*
X129085714Y-94102380D01*
X129085714Y-94102380D02*
X129085714Y-93102380D01*
X129561905Y-94102380D02*
X129561905Y-93102380D01*
X129561905Y-93102380D02*
X129800000Y-93102380D01*
X129800000Y-93102380D02*
X129942857Y-93150000D01*
X129942857Y-93150000D02*
X130038095Y-93245238D01*
X130038095Y-93245238D02*
X130085714Y-93340476D01*
X130085714Y-93340476D02*
X130133333Y-93530952D01*
X130133333Y-93530952D02*
X130133333Y-93673809D01*
X130133333Y-93673809D02*
X130085714Y-93864285D01*
X130085714Y-93864285D02*
X130038095Y-93959523D01*
X130038095Y-93959523D02*
X129942857Y-94054761D01*
X129942857Y-94054761D02*
X129800000Y-94102380D01*
X129800000Y-94102380D02*
X129561905Y-94102380D01*
X127285714Y-104116666D02*
X127761904Y-104116666D01*
X127190476Y-104402380D02*
X127523809Y-103402380D01*
X127523809Y-103402380D02*
X127857142Y-104402380D01*
X128190476Y-104402380D02*
X128190476Y-103402380D01*
X128190476Y-103402380D02*
X128428571Y-103402380D01*
X128428571Y-103402380D02*
X128571428Y-103450000D01*
X128571428Y-103450000D02*
X128666666Y-103545238D01*
X128666666Y-103545238D02*
X128714285Y-103640476D01*
X128714285Y-103640476D02*
X128761904Y-103830952D01*
X128761904Y-103830952D02*
X128761904Y-103973809D01*
X128761904Y-103973809D02*
X128714285Y-104164285D01*
X128714285Y-104164285D02*
X128666666Y-104259523D01*
X128666666Y-104259523D02*
X128571428Y-104354761D01*
X128571428Y-104354761D02*
X128428571Y-104402380D01*
X128428571Y-104402380D02*
X128190476Y-104402380D01*
X129380952Y-103402380D02*
X129476190Y-103402380D01*
X129476190Y-103402380D02*
X129571428Y-103450000D01*
X129571428Y-103450000D02*
X129619047Y-103497619D01*
X129619047Y-103497619D02*
X129666666Y-103592857D01*
X129666666Y-103592857D02*
X129714285Y-103783333D01*
X129714285Y-103783333D02*
X129714285Y-104021428D01*
X129714285Y-104021428D02*
X129666666Y-104211904D01*
X129666666Y-104211904D02*
X129619047Y-104307142D01*
X129619047Y-104307142D02*
X129571428Y-104354761D01*
X129571428Y-104354761D02*
X129476190Y-104402380D01*
X129476190Y-104402380D02*
X129380952Y-104402380D01*
X129380952Y-104402380D02*
X129285714Y-104354761D01*
X129285714Y-104354761D02*
X129238095Y-104307142D01*
X129238095Y-104307142D02*
X129190476Y-104211904D01*
X129190476Y-104211904D02*
X129142857Y-104021428D01*
X129142857Y-104021428D02*
X129142857Y-103783333D01*
X129142857Y-103783333D02*
X129190476Y-103592857D01*
X129190476Y-103592857D02*
X129238095Y-103497619D01*
X129238095Y-103497619D02*
X129285714Y-103450000D01*
X129285714Y-103450000D02*
X129380952Y-103402380D01*
X127338095Y-101802380D02*
X127338095Y-100802380D01*
X127338095Y-100802380D02*
X127909523Y-101802380D01*
X127909523Y-101802380D02*
X127909523Y-100802380D01*
X128957142Y-101707142D02*
X128909523Y-101754761D01*
X128909523Y-101754761D02*
X128766666Y-101802380D01*
X128766666Y-101802380D02*
X128671428Y-101802380D01*
X128671428Y-101802380D02*
X128528571Y-101754761D01*
X128528571Y-101754761D02*
X128433333Y-101659523D01*
X128433333Y-101659523D02*
X128385714Y-101564285D01*
X128385714Y-101564285D02*
X128338095Y-101373809D01*
X128338095Y-101373809D02*
X128338095Y-101230952D01*
X128338095Y-101230952D02*
X128385714Y-101040476D01*
X128385714Y-101040476D02*
X128433333Y-100945238D01*
X128433333Y-100945238D02*
X128528571Y-100850000D01*
X128528571Y-100850000D02*
X128671428Y-100802380D01*
X128671428Y-100802380D02*
X128766666Y-100802380D01*
X128766666Y-100802380D02*
X128909523Y-100850000D01*
X128909523Y-100850000D02*
X128957142Y-100897619D01*
X129338095Y-101754761D02*
X129480952Y-101802380D01*
X129480952Y-101802380D02*
X129719047Y-101802380D01*
X129719047Y-101802380D02*
X129814285Y-101754761D01*
X129814285Y-101754761D02*
X129861904Y-101707142D01*
X129861904Y-101707142D02*
X129909523Y-101611904D01*
X129909523Y-101611904D02*
X129909523Y-101516666D01*
X129909523Y-101516666D02*
X129861904Y-101421428D01*
X129861904Y-101421428D02*
X129814285Y-101373809D01*
X129814285Y-101373809D02*
X129719047Y-101326190D01*
X129719047Y-101326190D02*
X129528571Y-101278571D01*
X129528571Y-101278571D02*
X129433333Y-101230952D01*
X129433333Y-101230952D02*
X129385714Y-101183333D01*
X129385714Y-101183333D02*
X129338095Y-101088095D01*
X129338095Y-101088095D02*
X129338095Y-100992857D01*
X129338095Y-100992857D02*
X129385714Y-100897619D01*
X129385714Y-100897619D02*
X129433333Y-100850000D01*
X129433333Y-100850000D02*
X129528571Y-100802380D01*
X129528571Y-100802380D02*
X129766666Y-100802380D01*
X129766666Y-100802380D02*
X129909523Y-100850000D01*
X127733333Y-112007142D02*
X127685714Y-112054761D01*
X127685714Y-112054761D02*
X127542857Y-112102380D01*
X127542857Y-112102380D02*
X127447619Y-112102380D01*
X127447619Y-112102380D02*
X127304762Y-112054761D01*
X127304762Y-112054761D02*
X127209524Y-111959523D01*
X127209524Y-111959523D02*
X127161905Y-111864285D01*
X127161905Y-111864285D02*
X127114286Y-111673809D01*
X127114286Y-111673809D02*
X127114286Y-111530952D01*
X127114286Y-111530952D02*
X127161905Y-111340476D01*
X127161905Y-111340476D02*
X127209524Y-111245238D01*
X127209524Y-111245238D02*
X127304762Y-111150000D01*
X127304762Y-111150000D02*
X127447619Y-111102380D01*
X127447619Y-111102380D02*
X127542857Y-111102380D01*
X127542857Y-111102380D02*
X127685714Y-111150000D01*
X127685714Y-111150000D02*
X127733333Y-111197619D01*
X128114286Y-112054761D02*
X128257143Y-112102380D01*
X128257143Y-112102380D02*
X128495238Y-112102380D01*
X128495238Y-112102380D02*
X128590476Y-112054761D01*
X128590476Y-112054761D02*
X128638095Y-112007142D01*
X128638095Y-112007142D02*
X128685714Y-111911904D01*
X128685714Y-111911904D02*
X128685714Y-111816666D01*
X128685714Y-111816666D02*
X128638095Y-111721428D01*
X128638095Y-111721428D02*
X128590476Y-111673809D01*
X128590476Y-111673809D02*
X128495238Y-111626190D01*
X128495238Y-111626190D02*
X128304762Y-111578571D01*
X128304762Y-111578571D02*
X128209524Y-111530952D01*
X128209524Y-111530952D02*
X128161905Y-111483333D01*
X128161905Y-111483333D02*
X128114286Y-111388095D01*
X128114286Y-111388095D02*
X128114286Y-111292857D01*
X128114286Y-111292857D02*
X128161905Y-111197619D01*
X128161905Y-111197619D02*
X128209524Y-111150000D01*
X128209524Y-111150000D02*
X128304762Y-111102380D01*
X128304762Y-111102380D02*
X128542857Y-111102380D01*
X128542857Y-111102380D02*
X128685714Y-111150000D01*
X129447619Y-111578571D02*
X129590476Y-111626190D01*
X129590476Y-111626190D02*
X129638095Y-111673809D01*
X129638095Y-111673809D02*
X129685714Y-111769047D01*
X129685714Y-111769047D02*
X129685714Y-111911904D01*
X129685714Y-111911904D02*
X129638095Y-112007142D01*
X129638095Y-112007142D02*
X129590476Y-112054761D01*
X129590476Y-112054761D02*
X129495238Y-112102380D01*
X129495238Y-112102380D02*
X129114286Y-112102380D01*
X129114286Y-112102380D02*
X129114286Y-111102380D01*
X129114286Y-111102380D02*
X129447619Y-111102380D01*
X129447619Y-111102380D02*
X129542857Y-111150000D01*
X129542857Y-111150000D02*
X129590476Y-111197619D01*
X129590476Y-111197619D02*
X129638095Y-111292857D01*
X129638095Y-111292857D02*
X129638095Y-111388095D01*
X129638095Y-111388095D02*
X129590476Y-111483333D01*
X129590476Y-111483333D02*
X129542857Y-111530952D01*
X129542857Y-111530952D02*
X129447619Y-111578571D01*
X129447619Y-111578571D02*
X129114286Y-111578571D01*
X127295238Y-106902380D02*
X127295238Y-105902380D01*
X127771428Y-106902380D02*
X127771428Y-105902380D01*
X127771428Y-105902380D02*
X128342856Y-106902380D01*
X128342856Y-106902380D02*
X128342856Y-105902380D01*
X128676190Y-105902380D02*
X129247618Y-105902380D01*
X128961904Y-106902380D02*
X128961904Y-105902380D01*
X127290476Y-109454761D02*
X127433333Y-109502380D01*
X127433333Y-109502380D02*
X127671428Y-109502380D01*
X127671428Y-109502380D02*
X127766666Y-109454761D01*
X127766666Y-109454761D02*
X127814285Y-109407142D01*
X127814285Y-109407142D02*
X127861904Y-109311904D01*
X127861904Y-109311904D02*
X127861904Y-109216666D01*
X127861904Y-109216666D02*
X127814285Y-109121428D01*
X127814285Y-109121428D02*
X127766666Y-109073809D01*
X127766666Y-109073809D02*
X127671428Y-109026190D01*
X127671428Y-109026190D02*
X127480952Y-108978571D01*
X127480952Y-108978571D02*
X127385714Y-108930952D01*
X127385714Y-108930952D02*
X127338095Y-108883333D01*
X127338095Y-108883333D02*
X127290476Y-108788095D01*
X127290476Y-108788095D02*
X127290476Y-108692857D01*
X127290476Y-108692857D02*
X127338095Y-108597619D01*
X127338095Y-108597619D02*
X127385714Y-108550000D01*
X127385714Y-108550000D02*
X127480952Y-108502380D01*
X127480952Y-108502380D02*
X127719047Y-108502380D01*
X127719047Y-108502380D02*
X127861904Y-108550000D01*
X128290476Y-109502380D02*
X128290476Y-108502380D01*
X128290476Y-108502380D02*
X128528571Y-108502380D01*
X128528571Y-108502380D02*
X128671428Y-108550000D01*
X128671428Y-108550000D02*
X128766666Y-108645238D01*
X128766666Y-108645238D02*
X128814285Y-108740476D01*
X128814285Y-108740476D02*
X128861904Y-108930952D01*
X128861904Y-108930952D02*
X128861904Y-109073809D01*
X128861904Y-109073809D02*
X128814285Y-109264285D01*
X128814285Y-109264285D02*
X128766666Y-109359523D01*
X128766666Y-109359523D02*
X128671428Y-109454761D01*
X128671428Y-109454761D02*
X128528571Y-109502380D01*
X128528571Y-109502380D02*
X128290476Y-109502380D01*
X129480952Y-108502380D02*
X129671428Y-108502380D01*
X129671428Y-108502380D02*
X129766666Y-108550000D01*
X129766666Y-108550000D02*
X129861904Y-108645238D01*
X129861904Y-108645238D02*
X129909523Y-108835714D01*
X129909523Y-108835714D02*
X129909523Y-109169047D01*
X129909523Y-109169047D02*
X129861904Y-109359523D01*
X129861904Y-109359523D02*
X129766666Y-109454761D01*
X129766666Y-109454761D02*
X129671428Y-109502380D01*
X129671428Y-109502380D02*
X129480952Y-109502380D01*
X129480952Y-109502380D02*
X129385714Y-109454761D01*
X129385714Y-109454761D02*
X129290476Y-109359523D01*
X129290476Y-109359523D02*
X129242857Y-109169047D01*
X129242857Y-109169047D02*
X129242857Y-108835714D01*
X129242857Y-108835714D02*
X129290476Y-108645238D01*
X129290476Y-108645238D02*
X129385714Y-108550000D01*
X129385714Y-108550000D02*
X129480952Y-108502380D01*
X127385714Y-99154761D02*
X127528571Y-99202380D01*
X127528571Y-99202380D02*
X127766666Y-99202380D01*
X127766666Y-99202380D02*
X127861904Y-99154761D01*
X127861904Y-99154761D02*
X127909523Y-99107142D01*
X127909523Y-99107142D02*
X127957142Y-99011904D01*
X127957142Y-99011904D02*
X127957142Y-98916666D01*
X127957142Y-98916666D02*
X127909523Y-98821428D01*
X127909523Y-98821428D02*
X127861904Y-98773809D01*
X127861904Y-98773809D02*
X127766666Y-98726190D01*
X127766666Y-98726190D02*
X127576190Y-98678571D01*
X127576190Y-98678571D02*
X127480952Y-98630952D01*
X127480952Y-98630952D02*
X127433333Y-98583333D01*
X127433333Y-98583333D02*
X127385714Y-98488095D01*
X127385714Y-98488095D02*
X127385714Y-98392857D01*
X127385714Y-98392857D02*
X127433333Y-98297619D01*
X127433333Y-98297619D02*
X127480952Y-98250000D01*
X127480952Y-98250000D02*
X127576190Y-98202380D01*
X127576190Y-98202380D02*
X127814285Y-98202380D01*
X127814285Y-98202380D02*
X127957142Y-98250000D01*
X128385714Y-99202380D02*
X128385714Y-98202380D01*
X128385714Y-98202380D02*
X128623809Y-98202380D01*
X128623809Y-98202380D02*
X128766666Y-98250000D01*
X128766666Y-98250000D02*
X128861904Y-98345238D01*
X128861904Y-98345238D02*
X128909523Y-98440476D01*
X128909523Y-98440476D02*
X128957142Y-98630952D01*
X128957142Y-98630952D02*
X128957142Y-98773809D01*
X128957142Y-98773809D02*
X128909523Y-98964285D01*
X128909523Y-98964285D02*
X128861904Y-99059523D01*
X128861904Y-99059523D02*
X128766666Y-99154761D01*
X128766666Y-99154761D02*
X128623809Y-99202380D01*
X128623809Y-99202380D02*
X128385714Y-99202380D01*
X129338095Y-98916666D02*
X129814285Y-98916666D01*
X129242857Y-99202380D02*
X129576190Y-98202380D01*
X129576190Y-98202380D02*
X129909523Y-99202380D01*
X127466667Y-90602380D02*
X127800000Y-91602380D01*
X127800000Y-91602380D02*
X128133333Y-90602380D01*
X129038095Y-91507142D02*
X128990476Y-91554761D01*
X128990476Y-91554761D02*
X128847619Y-91602380D01*
X128847619Y-91602380D02*
X128752381Y-91602380D01*
X128752381Y-91602380D02*
X128609524Y-91554761D01*
X128609524Y-91554761D02*
X128514286Y-91459523D01*
X128514286Y-91459523D02*
X128466667Y-91364285D01*
X128466667Y-91364285D02*
X128419048Y-91173809D01*
X128419048Y-91173809D02*
X128419048Y-91030952D01*
X128419048Y-91030952D02*
X128466667Y-90840476D01*
X128466667Y-90840476D02*
X128514286Y-90745238D01*
X128514286Y-90745238D02*
X128609524Y-90650000D01*
X128609524Y-90650000D02*
X128752381Y-90602380D01*
X128752381Y-90602380D02*
X128847619Y-90602380D01*
X128847619Y-90602380D02*
X128990476Y-90650000D01*
X128990476Y-90650000D02*
X129038095Y-90697619D01*
X130038095Y-91507142D02*
X129990476Y-91554761D01*
X129990476Y-91554761D02*
X129847619Y-91602380D01*
X129847619Y-91602380D02*
X129752381Y-91602380D01*
X129752381Y-91602380D02*
X129609524Y-91554761D01*
X129609524Y-91554761D02*
X129514286Y-91459523D01*
X129514286Y-91459523D02*
X129466667Y-91364285D01*
X129466667Y-91364285D02*
X129419048Y-91173809D01*
X129419048Y-91173809D02*
X129419048Y-91030952D01*
X129419048Y-91030952D02*
X129466667Y-90840476D01*
X129466667Y-90840476D02*
X129514286Y-90745238D01*
X129514286Y-90745238D02*
X129609524Y-90650000D01*
X129609524Y-90650000D02*
X129752381Y-90602380D01*
X129752381Y-90602380D02*
X129847619Y-90602380D01*
X129847619Y-90602380D02*
X129990476Y-90650000D01*
X129990476Y-90650000D02*
X130038095Y-90697619D01*
X127261905Y-114502380D02*
X127261905Y-113502380D01*
X127261905Y-113502380D02*
X127642857Y-113502380D01*
X127642857Y-113502380D02*
X127738095Y-113550000D01*
X127738095Y-113550000D02*
X127785714Y-113597619D01*
X127785714Y-113597619D02*
X127833333Y-113692857D01*
X127833333Y-113692857D02*
X127833333Y-113835714D01*
X127833333Y-113835714D02*
X127785714Y-113930952D01*
X127785714Y-113930952D02*
X127738095Y-113978571D01*
X127738095Y-113978571D02*
X127642857Y-114026190D01*
X127642857Y-114026190D02*
X127261905Y-114026190D01*
X128214286Y-114454761D02*
X128357143Y-114502380D01*
X128357143Y-114502380D02*
X128595238Y-114502380D01*
X128595238Y-114502380D02*
X128690476Y-114454761D01*
X128690476Y-114454761D02*
X128738095Y-114407142D01*
X128738095Y-114407142D02*
X128785714Y-114311904D01*
X128785714Y-114311904D02*
X128785714Y-114216666D01*
X128785714Y-114216666D02*
X128738095Y-114121428D01*
X128738095Y-114121428D02*
X128690476Y-114073809D01*
X128690476Y-114073809D02*
X128595238Y-114026190D01*
X128595238Y-114026190D02*
X128404762Y-113978571D01*
X128404762Y-113978571D02*
X128309524Y-113930952D01*
X128309524Y-113930952D02*
X128261905Y-113883333D01*
X128261905Y-113883333D02*
X128214286Y-113788095D01*
X128214286Y-113788095D02*
X128214286Y-113692857D01*
X128214286Y-113692857D02*
X128261905Y-113597619D01*
X128261905Y-113597619D02*
X128309524Y-113550000D01*
X128309524Y-113550000D02*
X128404762Y-113502380D01*
X128404762Y-113502380D02*
X128642857Y-113502380D01*
X128642857Y-113502380D02*
X128785714Y-113550000D01*
X100033333Y-117557142D02*
X99985714Y-117604761D01*
X99985714Y-117604761D02*
X99842857Y-117652380D01*
X99842857Y-117652380D02*
X99747619Y-117652380D01*
X99747619Y-117652380D02*
X99604762Y-117604761D01*
X99604762Y-117604761D02*
X99509524Y-117509523D01*
X99509524Y-117509523D02*
X99461905Y-117414285D01*
X99461905Y-117414285D02*
X99414286Y-117223809D01*
X99414286Y-117223809D02*
X99414286Y-117080952D01*
X99414286Y-117080952D02*
X99461905Y-116890476D01*
X99461905Y-116890476D02*
X99509524Y-116795238D01*
X99509524Y-116795238D02*
X99604762Y-116700000D01*
X99604762Y-116700000D02*
X99747619Y-116652380D01*
X99747619Y-116652380D02*
X99842857Y-116652380D01*
X99842857Y-116652380D02*
X99985714Y-116700000D01*
X99985714Y-116700000D02*
X100033333Y-116747619D01*
X100366667Y-116652380D02*
X100985714Y-116652380D01*
X100985714Y-116652380D02*
X100652381Y-117033333D01*
X100652381Y-117033333D02*
X100795238Y-117033333D01*
X100795238Y-117033333D02*
X100890476Y-117080952D01*
X100890476Y-117080952D02*
X100938095Y-117128571D01*
X100938095Y-117128571D02*
X100985714Y-117223809D01*
X100985714Y-117223809D02*
X100985714Y-117461904D01*
X100985714Y-117461904D02*
X100938095Y-117557142D01*
X100938095Y-117557142D02*
X100890476Y-117604761D01*
X100890476Y-117604761D02*
X100795238Y-117652380D01*
X100795238Y-117652380D02*
X100509524Y-117652380D01*
X100509524Y-117652380D02*
X100414286Y-117604761D01*
X100414286Y-117604761D02*
X100366667Y-117557142D01*
X100195238Y-114738095D02*
X100147619Y-114642857D01*
X100147619Y-114642857D02*
X100147619Y-114452381D01*
X100147619Y-114452381D02*
X100195238Y-114357143D01*
X100195238Y-114357143D02*
X100242857Y-114309524D01*
X100242857Y-114309524D02*
X100338095Y-114261905D01*
X100338095Y-114261905D02*
X100623809Y-114261905D01*
X100623809Y-114261905D02*
X100719047Y-114309524D01*
X100719047Y-114309524D02*
X100766666Y-114357143D01*
X100766666Y-114357143D02*
X100814285Y-114452381D01*
X100814285Y-114452381D02*
X100814285Y-114642857D01*
X100814285Y-114642857D02*
X100766666Y-114738095D01*
X145938095Y-96502380D02*
X145938095Y-97311904D01*
X145938095Y-97311904D02*
X145985714Y-97407142D01*
X145985714Y-97407142D02*
X146033333Y-97454761D01*
X146033333Y-97454761D02*
X146128571Y-97502380D01*
X146128571Y-97502380D02*
X146319047Y-97502380D01*
X146319047Y-97502380D02*
X146414285Y-97454761D01*
X146414285Y-97454761D02*
X146461904Y-97407142D01*
X146461904Y-97407142D02*
X146509523Y-97311904D01*
X146509523Y-97311904D02*
X146509523Y-96502380D01*
X147461904Y-96502380D02*
X146985714Y-96502380D01*
X146985714Y-96502380D02*
X146938095Y-96978571D01*
X146938095Y-96978571D02*
X146985714Y-96930952D01*
X146985714Y-96930952D02*
X147080952Y-96883333D01*
X147080952Y-96883333D02*
X147319047Y-96883333D01*
X147319047Y-96883333D02*
X147414285Y-96930952D01*
X147414285Y-96930952D02*
X147461904Y-96978571D01*
X147461904Y-96978571D02*
X147509523Y-97073809D01*
X147509523Y-97073809D02*
X147509523Y-97311904D01*
X147509523Y-97311904D02*
X147461904Y-97407142D01*
X147461904Y-97407142D02*
X147414285Y-97454761D01*
X147414285Y-97454761D02*
X147319047Y-97502380D01*
X147319047Y-97502380D02*
X147080952Y-97502380D01*
X147080952Y-97502380D02*
X146985714Y-97454761D01*
X146985714Y-97454761D02*
X146938095Y-97407142D01*
X151757142Y-90552380D02*
X151423809Y-90076190D01*
X151185714Y-90552380D02*
X151185714Y-89552380D01*
X151185714Y-89552380D02*
X151566666Y-89552380D01*
X151566666Y-89552380D02*
X151661904Y-89600000D01*
X151661904Y-89600000D02*
X151709523Y-89647619D01*
X151709523Y-89647619D02*
X151757142Y-89742857D01*
X151757142Y-89742857D02*
X151757142Y-89885714D01*
X151757142Y-89885714D02*
X151709523Y-89980952D01*
X151709523Y-89980952D02*
X151661904Y-90028571D01*
X151661904Y-90028571D02*
X151566666Y-90076190D01*
X151566666Y-90076190D02*
X151185714Y-90076190D01*
X152709523Y-90552380D02*
X152138095Y-90552380D01*
X152423809Y-90552380D02*
X152423809Y-89552380D01*
X152423809Y-89552380D02*
X152328571Y-89695238D01*
X152328571Y-89695238D02*
X152233333Y-89790476D01*
X152233333Y-89790476D02*
X152138095Y-89838095D01*
X153614285Y-89552380D02*
X153138095Y-89552380D01*
X153138095Y-89552380D02*
X153090476Y-90028571D01*
X153090476Y-90028571D02*
X153138095Y-89980952D01*
X153138095Y-89980952D02*
X153233333Y-89933333D01*
X153233333Y-89933333D02*
X153471428Y-89933333D01*
X153471428Y-89933333D02*
X153566666Y-89980952D01*
X153566666Y-89980952D02*
X153614285Y-90028571D01*
X153614285Y-90028571D02*
X153661904Y-90123809D01*
X153661904Y-90123809D02*
X153661904Y-90361904D01*
X153661904Y-90361904D02*
X153614285Y-90457142D01*
X153614285Y-90457142D02*
X153566666Y-90504761D01*
X153566666Y-90504761D02*
X153471428Y-90552380D01*
X153471428Y-90552380D02*
X153233333Y-90552380D01*
X153233333Y-90552380D02*
X153138095Y-90504761D01*
X153138095Y-90504761D02*
X153090476Y-90457142D01*
X152147619Y-92328571D02*
X152814285Y-92328571D01*
X152623809Y-92328571D02*
X152719047Y-92376190D01*
X152719047Y-92376190D02*
X152766666Y-92423809D01*
X152766666Y-92423809D02*
X152814285Y-92519047D01*
X152814285Y-92519047D02*
X152814285Y-92614285D01*
X118554761Y-88197619D02*
X118459523Y-88150000D01*
X118459523Y-88150000D02*
X118364285Y-88054761D01*
X118364285Y-88054761D02*
X118221428Y-87911904D01*
X118221428Y-87911904D02*
X118126190Y-87864285D01*
X118126190Y-87864285D02*
X118030952Y-87864285D01*
X118078571Y-88102380D02*
X117983333Y-88054761D01*
X117983333Y-88054761D02*
X117888095Y-87959523D01*
X117888095Y-87959523D02*
X117840476Y-87769047D01*
X117840476Y-87769047D02*
X117840476Y-87435714D01*
X117840476Y-87435714D02*
X117888095Y-87245238D01*
X117888095Y-87245238D02*
X117983333Y-87150000D01*
X117983333Y-87150000D02*
X118078571Y-87102380D01*
X118078571Y-87102380D02*
X118269047Y-87102380D01*
X118269047Y-87102380D02*
X118364285Y-87150000D01*
X118364285Y-87150000D02*
X118459523Y-87245238D01*
X118459523Y-87245238D02*
X118507142Y-87435714D01*
X118507142Y-87435714D02*
X118507142Y-87769047D01*
X118507142Y-87769047D02*
X118459523Y-87959523D01*
X118459523Y-87959523D02*
X118364285Y-88054761D01*
X118364285Y-88054761D02*
X118269047Y-88102380D01*
X118269047Y-88102380D02*
X118078571Y-88102380D01*
X119459523Y-88102380D02*
X118888095Y-88102380D01*
X119173809Y-88102380D02*
X119173809Y-87102380D01*
X119173809Y-87102380D02*
X119078571Y-87245238D01*
X119078571Y-87245238D02*
X118983333Y-87340476D01*
X118983333Y-87340476D02*
X118888095Y-87388095D01*
X105407142Y-118252380D02*
X105073809Y-117776190D01*
X104835714Y-118252380D02*
X104835714Y-117252380D01*
X104835714Y-117252380D02*
X105216666Y-117252380D01*
X105216666Y-117252380D02*
X105311904Y-117300000D01*
X105311904Y-117300000D02*
X105359523Y-117347619D01*
X105359523Y-117347619D02*
X105407142Y-117442857D01*
X105407142Y-117442857D02*
X105407142Y-117585714D01*
X105407142Y-117585714D02*
X105359523Y-117680952D01*
X105359523Y-117680952D02*
X105311904Y-117728571D01*
X105311904Y-117728571D02*
X105216666Y-117776190D01*
X105216666Y-117776190D02*
X104835714Y-117776190D01*
X106359523Y-118252380D02*
X105788095Y-118252380D01*
X106073809Y-118252380D02*
X106073809Y-117252380D01*
X106073809Y-117252380D02*
X105978571Y-117395238D01*
X105978571Y-117395238D02*
X105883333Y-117490476D01*
X105883333Y-117490476D02*
X105788095Y-117538095D01*
X106978571Y-117252380D02*
X107073809Y-117252380D01*
X107073809Y-117252380D02*
X107169047Y-117300000D01*
X107169047Y-117300000D02*
X107216666Y-117347619D01*
X107216666Y-117347619D02*
X107264285Y-117442857D01*
X107264285Y-117442857D02*
X107311904Y-117633333D01*
X107311904Y-117633333D02*
X107311904Y-117871428D01*
X107311904Y-117871428D02*
X107264285Y-118061904D01*
X107264285Y-118061904D02*
X107216666Y-118157142D01*
X107216666Y-118157142D02*
X107169047Y-118204761D01*
X107169047Y-118204761D02*
X107073809Y-118252380D01*
X107073809Y-118252380D02*
X106978571Y-118252380D01*
X106978571Y-118252380D02*
X106883333Y-118204761D01*
X106883333Y-118204761D02*
X106835714Y-118157142D01*
X106835714Y-118157142D02*
X106788095Y-118061904D01*
X106788095Y-118061904D02*
X106740476Y-117871428D01*
X106740476Y-117871428D02*
X106740476Y-117633333D01*
X106740476Y-117633333D02*
X106788095Y-117442857D01*
X106788095Y-117442857D02*
X106835714Y-117347619D01*
X106835714Y-117347619D02*
X106883333Y-117300000D01*
X106883333Y-117300000D02*
X106978571Y-117252380D01*
X105828571Y-116352380D02*
X105828571Y-115685714D01*
X105828571Y-115876190D02*
X105876190Y-115780952D01*
X105876190Y-115780952D02*
X105923809Y-115733333D01*
X105923809Y-115733333D02*
X106019047Y-115685714D01*
X106019047Y-115685714D02*
X106114285Y-115685714D01*
X154857142Y-97002380D02*
X154523809Y-96526190D01*
X154285714Y-97002380D02*
X154285714Y-96002380D01*
X154285714Y-96002380D02*
X154666666Y-96002380D01*
X154666666Y-96002380D02*
X154761904Y-96050000D01*
X154761904Y-96050000D02*
X154809523Y-96097619D01*
X154809523Y-96097619D02*
X154857142Y-96192857D01*
X154857142Y-96192857D02*
X154857142Y-96335714D01*
X154857142Y-96335714D02*
X154809523Y-96430952D01*
X154809523Y-96430952D02*
X154761904Y-96478571D01*
X154761904Y-96478571D02*
X154666666Y-96526190D01*
X154666666Y-96526190D02*
X154285714Y-96526190D01*
X155809523Y-97002380D02*
X155238095Y-97002380D01*
X155523809Y-97002380D02*
X155523809Y-96002380D01*
X155523809Y-96002380D02*
X155428571Y-96145238D01*
X155428571Y-96145238D02*
X155333333Y-96240476D01*
X155333333Y-96240476D02*
X155238095Y-96288095D01*
X156666666Y-96002380D02*
X156476190Y-96002380D01*
X156476190Y-96002380D02*
X156380952Y-96050000D01*
X156380952Y-96050000D02*
X156333333Y-96097619D01*
X156333333Y-96097619D02*
X156238095Y-96240476D01*
X156238095Y-96240476D02*
X156190476Y-96430952D01*
X156190476Y-96430952D02*
X156190476Y-96811904D01*
X156190476Y-96811904D02*
X156238095Y-96907142D01*
X156238095Y-96907142D02*
X156285714Y-96954761D01*
X156285714Y-96954761D02*
X156380952Y-97002380D01*
X156380952Y-97002380D02*
X156571428Y-97002380D01*
X156571428Y-97002380D02*
X156666666Y-96954761D01*
X156666666Y-96954761D02*
X156714285Y-96907142D01*
X156714285Y-96907142D02*
X156761904Y-96811904D01*
X156761904Y-96811904D02*
X156761904Y-96573809D01*
X156761904Y-96573809D02*
X156714285Y-96478571D01*
X156714285Y-96478571D02*
X156666666Y-96430952D01*
X156666666Y-96430952D02*
X156571428Y-96383333D01*
X156571428Y-96383333D02*
X156380952Y-96383333D01*
X156380952Y-96383333D02*
X156285714Y-96430952D01*
X156285714Y-96430952D02*
X156238095Y-96478571D01*
X156238095Y-96478571D02*
X156190476Y-96573809D01*
X154721428Y-97847619D02*
X154721428Y-98514285D01*
X154721428Y-98323809D02*
X154673809Y-98419047D01*
X154673809Y-98419047D02*
X154626190Y-98466666D01*
X154626190Y-98466666D02*
X154530952Y-98514285D01*
X154530952Y-98514285D02*
X154435714Y-98514285D01*
X147657142Y-101657142D02*
X147609523Y-101704761D01*
X147609523Y-101704761D02*
X147466666Y-101752380D01*
X147466666Y-101752380D02*
X147371428Y-101752380D01*
X147371428Y-101752380D02*
X147228571Y-101704761D01*
X147228571Y-101704761D02*
X147133333Y-101609523D01*
X147133333Y-101609523D02*
X147085714Y-101514285D01*
X147085714Y-101514285D02*
X147038095Y-101323809D01*
X147038095Y-101323809D02*
X147038095Y-101180952D01*
X147038095Y-101180952D02*
X147085714Y-100990476D01*
X147085714Y-100990476D02*
X147133333Y-100895238D01*
X147133333Y-100895238D02*
X147228571Y-100800000D01*
X147228571Y-100800000D02*
X147371428Y-100752380D01*
X147371428Y-100752380D02*
X147466666Y-100752380D01*
X147466666Y-100752380D02*
X147609523Y-100800000D01*
X147609523Y-100800000D02*
X147657142Y-100847619D01*
X148609523Y-101752380D02*
X148038095Y-101752380D01*
X148323809Y-101752380D02*
X148323809Y-100752380D01*
X148323809Y-100752380D02*
X148228571Y-100895238D01*
X148228571Y-100895238D02*
X148133333Y-100990476D01*
X148133333Y-100990476D02*
X148038095Y-101038095D01*
X149466666Y-101085714D02*
X149466666Y-101752380D01*
X149228571Y-100704761D02*
X148990476Y-101419047D01*
X148990476Y-101419047D02*
X149609523Y-101419047D01*
X152838095Y-101554761D02*
X152742857Y-101602380D01*
X152742857Y-101602380D02*
X152552381Y-101602380D01*
X152552381Y-101602380D02*
X152457143Y-101554761D01*
X152457143Y-101554761D02*
X152409524Y-101507142D01*
X152409524Y-101507142D02*
X152361905Y-101411904D01*
X152361905Y-101411904D02*
X152361905Y-101126190D01*
X152361905Y-101126190D02*
X152409524Y-101030952D01*
X152409524Y-101030952D02*
X152457143Y-100983333D01*
X152457143Y-100983333D02*
X152552381Y-100935714D01*
X152552381Y-100935714D02*
X152742857Y-100935714D01*
X152742857Y-100935714D02*
X152838095Y-100983333D01*
D11*
X153252064Y-104860000D02*
X152047936Y-104860000D01*
X153252064Y-103040000D02*
X152047936Y-103040000D01*
X153150000Y-103950000D02*
X152850000Y-104650000D01*
X152850000Y-104650000D02*
X152450000Y-103250000D01*
X152450000Y-103250000D02*
X152150000Y-103950000D01*
X148361252Y-93560000D02*
X146938748Y-93560000D01*
X148361252Y-91740000D02*
X146938748Y-91740000D01*
X139122936Y-117415000D02*
X139577064Y-117415000D01*
X139122936Y-118885000D02*
X139577064Y-118885000D01*
X159638748Y-109615000D02*
X160161252Y-109615000D01*
X159638748Y-111085000D02*
X160161252Y-111085000D01*
X121577064Y-94835000D02*
X121122936Y-94835000D01*
X121577064Y-93365000D02*
X121122936Y-93365000D01*
X104227064Y-114135000D02*
X103772936Y-114135000D01*
X104227064Y-112665000D02*
X103772936Y-112665000D01*
X101235000Y-114238748D02*
X101235000Y-114761252D01*
X99765000Y-114238748D02*
X99765000Y-114761252D01*
X90500000Y-87600000D02*
G75*
G03*
X90500000Y-87600000I-200000J0D01*
G01*
X153235000Y-92272936D02*
X153235000Y-92727064D01*
X151765000Y-92272936D02*
X151765000Y-92727064D01*
X105772936Y-115265000D02*
X106227064Y-115265000D01*
X105772936Y-116735000D02*
X106227064Y-116735000D01*
X154777064Y-98935000D02*
X154322936Y-98935000D01*
X154777064Y-97465000D02*
X154322936Y-97465000D01*
X151988748Y-100340000D02*
X153411252Y-100340000D01*
X151988748Y-102160000D02*
X153411252Y-102160000D01*
%LPC*%
D12*
X154137500Y-103950000D03*
X151162500Y-103950000D03*
D13*
X149212500Y-92650000D03*
X146087500Y-92650000D03*
D14*
X138350000Y-118150000D03*
X140350000Y-118150000D03*
D15*
X158862500Y-110350000D03*
X160937500Y-110350000D03*
D16*
X99050000Y-109950000D03*
X101050000Y-109950000D03*
X103050000Y-109950000D03*
X105050000Y-109950000D03*
X107050000Y-109950000D03*
X109050000Y-109950000D03*
X111050000Y-109950000D03*
X113050000Y-109950000D03*
D17*
X114550000Y-106950000D03*
X114550000Y-104950000D03*
X114550000Y-102950000D03*
X114550000Y-100950000D03*
X114550000Y-98950000D03*
X114550000Y-96950000D03*
D16*
X113050000Y-93950000D03*
X111050000Y-93950000D03*
X109050000Y-93950000D03*
X107050000Y-93950000D03*
X105050000Y-93950000D03*
X103050000Y-93950000D03*
X101050000Y-93950000D03*
X99050000Y-93950000D03*
D18*
X122350000Y-94100000D03*
X120350000Y-94100000D03*
X105000000Y-113400000D03*
X103000000Y-113400000D03*
D19*
X125899999Y-91189999D03*
D20*
X125899999Y-93729999D03*
X125899999Y-96269999D03*
X125899999Y-98809999D03*
X125899999Y-101349999D03*
X125899999Y-103889999D03*
X125899999Y-106429999D03*
X125899999Y-108969999D03*
X125899999Y-111509999D03*
X125899999Y-114049999D03*
D21*
X147000000Y-117250000D03*
D22*
X100500000Y-113462500D03*
X100500000Y-115537500D03*
D23*
X161850000Y-96400000D03*
X161850000Y-94000000D03*
D24*
X150950000Y-95650000D03*
X150000000Y-95650000D03*
X149050000Y-95650000D03*
X149050000Y-98350000D03*
X150950000Y-98350000D03*
D25*
X158600000Y-105700000D03*
D26*
X158599999Y-104499999D03*
D27*
X158600000Y-103500000D03*
X158600000Y-102500000D03*
X158600000Y-101500000D03*
D25*
X158600000Y-100300000D03*
D28*
X158799999Y-107299999D03*
X158799999Y-98699999D03*
X162599999Y-107299999D03*
X162599999Y-98699999D03*
D29*
X91700000Y-87600000D03*
X94240000Y-87600000D03*
X96780000Y-87600000D03*
D30*
X152500000Y-91500000D03*
X152500000Y-93500000D03*
D31*
X120450000Y-91700000D03*
X122350000Y-91700000D03*
X121400000Y-88700000D03*
D14*
X105000000Y-116000000D03*
X107000000Y-116000000D03*
D21*
X107000000Y-88750000D03*
D18*
X155550000Y-98200000D03*
X153550000Y-98200000D03*
D32*
X151137500Y-101250000D03*
X154262500Y-101250000D03*
M02*
