G04 #@! TF.GenerationSoftware,KiCad,Pcbnew,6.99.0-unknown-58b8d63ff8~148~ubuntu20.04.1*
G04 #@! TF.CreationDate,2022-03-11T08:50:32+05:30*
G04 #@! TF.ProjectId,espc3-vario,65737063-332d-4766-9172-696f2e6b6963,rev?*
G04 #@! TF.SameCoordinates,Original*
G04 #@! TF.FileFunction,Soldermask,Bot*
G04 #@! TF.FilePolarity,Negative*
%FSLAX46Y46*%
G04 Gerber Fmt 4.6, Leading zero omitted, Abs format (unit mm)*
G04 Created by KiCad (PCBNEW 6.99.0-unknown-58b8d63ff8~148~ubuntu20.04.1) date 2022-03-11 08:50:32*
%MOMM*%
%LPD*%
G01*
G04 APERTURE LIST*
G04 Aperture macros list*
%AMRoundRect*
0 Rectangle with rounded corners*
0 $1 Rounding radius*
0 $2 $3 $4 $5 $6 $7 $8 $9 X,Y pos of 4 corners*
0 Add a 4 corners polygon primitive as box body*
4,1,4,$2,$3,$4,$5,$6,$7,$8,$9,$2,$3,0*
0 Add four circle primitives for the rounded corners*
1,1,$1+$1,$2,$3*
1,1,$1+$1,$4,$5*
1,1,$1+$1,$6,$7*
1,1,$1+$1,$8,$9*
0 Add four rect primitives between the rounded corners*
20,1,$1+$1,$2,$3,$4,$5,0*
20,1,$1+$1,$4,$5,$6,$7,0*
20,1,$1+$1,$6,$7,$8,$9,0*
20,1,$1+$1,$8,$9,$2,$3,0*%
G04 Aperture macros list end*
%ADD10R,1.700000X1.700000*%
%ADD11O,1.700000X1.700000*%
%ADD12C,2.500000*%
%ADD13O,1.800000X1.000000*%
%ADD14RoundRect,0.300000X0.300000X-0.843000X0.300000X0.843000X-0.300000X0.843000X-0.300000X-0.843000X0*%
%ADD15RoundRect,0.300000X-0.300000X0.843000X-0.300000X-0.843000X0.300000X-0.843000X0.300000X0.843000X0*%
%ADD16RoundRect,0.250000X0.412500X0.650000X-0.412500X0.650000X-0.412500X-0.650000X0.412500X-0.650000X0*%
%ADD17R,1.000000X1.000000*%
%ADD18RoundRect,0.250000X0.450000X-0.325000X0.450000X0.325000X-0.450000X0.325000X-0.450000X-0.325000X0*%
%ADD19RoundRect,0.250000X-0.650000X0.412500X-0.650000X-0.412500X0.650000X-0.412500X0.650000X0.412500X0*%
%ADD20RoundRect,0.250000X-0.325000X-0.450000X0.325000X-0.450000X0.325000X0.450000X-0.325000X0.450000X0*%
%ADD21RoundRect,0.250000X0.650000X-0.412500X0.650000X0.412500X-0.650000X0.412500X-0.650000X-0.412500X0*%
%ADD22RoundRect,0.250000X-0.337500X-0.475000X0.337500X-0.475000X0.337500X0.475000X-0.337500X0.475000X0*%
%ADD23RoundRect,0.250000X-0.350000X-0.450000X0.350000X-0.450000X0.350000X0.450000X-0.350000X0.450000X0*%
%ADD24RoundRect,0.250000X0.450000X-0.350000X0.450000X0.350000X-0.450000X0.350000X-0.450000X-0.350000X0*%
%ADD25RoundRect,0.250000X0.337500X0.475000X-0.337500X0.475000X-0.337500X-0.475000X0.337500X-0.475000X0*%
%ADD26RoundRect,0.050000X-0.500000X-0.200000X0.500000X-0.200000X0.500000X0.200000X-0.500000X0.200000X0*%
%ADD27RoundRect,0.250000X-0.450000X0.350000X-0.450000X-0.350000X0.450000X-0.350000X0.450000X0.350000X0*%
%ADD28RoundRect,0.250000X-0.475000X0.337500X-0.475000X-0.337500X0.475000X-0.337500X0.475000X0.337500X0*%
%ADD29RoundRect,0.050000X-0.780000X-0.325000X0.780000X-0.325000X0.780000X0.325000X-0.780000X0.325000X0*%
%ADD30RoundRect,0.250000X0.350000X0.450000X-0.350000X0.450000X-0.350000X-0.450000X0.350000X-0.450000X0*%
%ADD31RoundRect,0.050000X-0.950000X-0.400000X0.950000X-0.400000X0.950000X0.400000X-0.950000X0.400000X0*%
%ADD32RoundRect,0.250000X-0.450000X0.325000X-0.450000X-0.325000X0.450000X-0.325000X0.450000X0.325000X0*%
%ADD33RoundRect,0.381000X-0.381000X0.762000X-0.381000X-0.762000X0.381000X-0.762000X0.381000X0.762000X0*%
G04 APERTURE END LIST*
D10*
X125899999Y-91189999D03*
D11*
X125899999Y-93729999D03*
X125899999Y-96269999D03*
X125899999Y-98809999D03*
X125899999Y-101349999D03*
X125899999Y-103889999D03*
X125899999Y-106429999D03*
X125899999Y-108969999D03*
X125899999Y-111509999D03*
X125899999Y-114049999D03*
D12*
X147000000Y-117250000D03*
D13*
X158799999Y-107299999D03*
X158799999Y-98699999D03*
X162599999Y-107299999D03*
X162599999Y-98699999D03*
D12*
X107000000Y-88750000D03*
D14*
X106850000Y-117850000D03*
X106850000Y-111850000D03*
X103050000Y-117850000D03*
X103050000Y-111850000D03*
D15*
X118600000Y-109900000D03*
X118600000Y-115900000D03*
X122400000Y-109900000D03*
X122400000Y-115900000D03*
D16*
X113962500Y-104000000D03*
X110837500Y-104000000D03*
D17*
X109749999Y-97549999D03*
X112249999Y-97549999D03*
D18*
X128500000Y-98125000D03*
X128500000Y-96075000D03*
D16*
X113012500Y-107000000D03*
X109887500Y-107000000D03*
D19*
X113000000Y-112437500D03*
X113000000Y-115562500D03*
D20*
X130925000Y-91500000D03*
X132975000Y-91500000D03*
D21*
X107100000Y-100212500D03*
X107100000Y-97087500D03*
D22*
X118462500Y-106350000D03*
X120537500Y-106350000D03*
D23*
X160500000Y-104100000D03*
X162500000Y-104100000D03*
D24*
X117350000Y-102000000D03*
X117350000Y-100000000D03*
X123000000Y-106350000D03*
X123000000Y-104350000D03*
D25*
X132987500Y-89400000D03*
X130912500Y-89400000D03*
D26*
X128400000Y-118425000D03*
X128400000Y-117775000D03*
X128400000Y-117125000D03*
X128400000Y-116475000D03*
X128400000Y-115825000D03*
X128400000Y-115175000D03*
X128400000Y-114525000D03*
X128400000Y-113875000D03*
X128400000Y-113225000D03*
X128400000Y-112575000D03*
X134200000Y-112575000D03*
X134200000Y-113225000D03*
X134200000Y-113875000D03*
X134200000Y-114525000D03*
X134200000Y-115175000D03*
X134200000Y-115825000D03*
X134200000Y-116475000D03*
X134200000Y-117125000D03*
X134200000Y-117775000D03*
X134200000Y-118425000D03*
D23*
X104000000Y-107000000D03*
X106000000Y-107000000D03*
D14*
X122400000Y-96100000D03*
X122400000Y-90100000D03*
X118600000Y-96100000D03*
X118600000Y-90100000D03*
D27*
X104000000Y-102500000D03*
X104000000Y-104500000D03*
D28*
X106500000Y-102462500D03*
X106500000Y-104537500D03*
X128500000Y-91462500D03*
X128500000Y-93537500D03*
D23*
X160500000Y-101850000D03*
X162500000Y-101850000D03*
D17*
X109999999Y-114749999D03*
X109999999Y-112249999D03*
D29*
X111350000Y-101600000D03*
X111350000Y-100650000D03*
X111350000Y-99700000D03*
X114050000Y-99700000D03*
X114050000Y-101600000D03*
D27*
X115800000Y-112600000D03*
X115800000Y-114600000D03*
D25*
X113037500Y-109350000D03*
X110962500Y-109350000D03*
D30*
X101850000Y-100250000D03*
X99850000Y-100250000D03*
D16*
X131762500Y-110450000D03*
X128637500Y-110450000D03*
D31*
X119800000Y-101950000D03*
X119800000Y-100050000D03*
X122800000Y-101000000D03*
D22*
X99862500Y-105100000D03*
X101937500Y-105100000D03*
D23*
X99850000Y-102850000D03*
X101850000Y-102850000D03*
D18*
X111000000Y-93975000D03*
X111000000Y-91925000D03*
D32*
X155000000Y-93975000D03*
X155000000Y-96025000D03*
D33*
X138150000Y-117950000D03*
X140550000Y-117950000D03*
D23*
X111050000Y-89500000D03*
X113050000Y-89500000D03*
M02*
