G04 #@! TF.GenerationSoftware,KiCad,Pcbnew,6.99.0-unknown-58b8d63ff8~148~ubuntu20.04.1*
G04 #@! TF.CreationDate,2022-03-11T08:50:32+05:30*
G04 #@! TF.ProjectId,espc3-vario,65737063-332d-4766-9172-696f2e6b6963,rev?*
G04 #@! TF.SameCoordinates,Original*
G04 #@! TF.FileFunction,Copper,L1,Top*
G04 #@! TF.FilePolarity,Positive*
%FSLAX46Y46*%
G04 Gerber Fmt 4.6, Leading zero omitted, Abs format (unit mm)*
G04 Created by KiCad (PCBNEW 6.99.0-unknown-58b8d63ff8~148~ubuntu20.04.1) date 2022-03-11 08:50:32*
%MOMM*%
%LPD*%
G01*
G04 APERTURE LIST*
G04 Aperture macros list*
%AMRoundRect*
0 Rectangle with rounded corners*
0 $1 Rounding radius*
0 $2 $3 $4 $5 $6 $7 $8 $9 X,Y pos of 4 corners*
0 Add a 4 corners polygon primitive as box body*
4,1,4,$2,$3,$4,$5,$6,$7,$8,$9,$2,$3,0*
0 Add four circle primitives for the rounded corners*
1,1,$1+$1,$2,$3*
1,1,$1+$1,$4,$5*
1,1,$1+$1,$6,$7*
1,1,$1+$1,$8,$9*
0 Add four rect primitives between the rounded corners*
20,1,$1+$1,$2,$3,$4,$5,0*
20,1,$1+$1,$4,$5,$6,$7,0*
20,1,$1+$1,$6,$7,$8,$9,0*
20,1,$1+$1,$8,$9,$2,$3,0*%
G04 Aperture macros list end*
G04 #@! TA.AperFunction,SMDPad,CuDef*
%ADD10RoundRect,0.250001X0.462499X0.624999X-0.462499X0.624999X-0.462499X-0.624999X0.462499X-0.624999X0*%
G04 #@! TD*
G04 #@! TA.AperFunction,SMDPad,CuDef*
%ADD11RoundRect,0.250000X0.412500X0.650000X-0.412500X0.650000X-0.412500X-0.650000X0.412500X-0.650000X0*%
G04 #@! TD*
G04 #@! TA.AperFunction,SMDPad,CuDef*
%ADD12RoundRect,0.250000X-0.350000X-0.450000X0.350000X-0.450000X0.350000X0.450000X-0.350000X0.450000X0*%
G04 #@! TD*
G04 #@! TA.AperFunction,SMDPad,CuDef*
%ADD13RoundRect,0.250000X-0.337500X-0.475000X0.337500X-0.475000X0.337500X0.475000X-0.337500X0.475000X0*%
G04 #@! TD*
G04 #@! TA.AperFunction,SMDPad,CuDef*
%ADD14RoundRect,0.275000X0.275000X-0.625000X0.275000X0.625000X-0.275000X0.625000X-0.275000X-0.625000X0*%
G04 #@! TD*
G04 #@! TA.AperFunction,SMDPad,CuDef*
%ADD15RoundRect,0.275000X-0.625000X-0.275000X0.625000X-0.275000X0.625000X0.275000X-0.625000X0.275000X0*%
G04 #@! TD*
G04 #@! TA.AperFunction,SMDPad,CuDef*
%ADD16RoundRect,0.250000X0.350000X0.450000X-0.350000X0.450000X-0.350000X-0.450000X0.350000X-0.450000X0*%
G04 #@! TD*
G04 #@! TA.AperFunction,ComponentPad*
%ADD17R,1.700000X1.700000*%
G04 #@! TD*
G04 #@! TA.AperFunction,ComponentPad*
%ADD18O,1.700000X1.700000*%
G04 #@! TD*
G04 #@! TA.AperFunction,SMDPad,CuDef*
%ADD19RoundRect,0.250000X-0.475000X0.337500X-0.475000X-0.337500X0.475000X-0.337500X0.475000X0.337500X0*%
G04 #@! TD*
G04 #@! TA.AperFunction,SMDPad,CuDef*
%ADD20RoundRect,0.381000X0.762000X0.381000X-0.762000X0.381000X-0.762000X-0.381000X0.762000X-0.381000X0*%
G04 #@! TD*
G04 #@! TA.AperFunction,SMDPad,CuDef*
%ADD21R,0.650000X1.560000*%
G04 #@! TD*
G04 #@! TA.AperFunction,SMDPad,CuDef*
%ADD22R,1.500000X0.800000*%
G04 #@! TD*
G04 #@! TA.AperFunction,SMDPad,CuDef*
%ADD23R,1.500000X0.700000*%
G04 #@! TD*
G04 #@! TA.AperFunction,ComponentPad*
%ADD24O,1.800000X1.000000*%
G04 #@! TD*
G04 #@! TA.AperFunction,SMDPad,CuDef*
%ADD25RoundRect,0.375000X0.375000X-0.875000X0.375000X0.875000X-0.375000X0.875000X-0.375000X-0.875000X0*%
G04 #@! TD*
G04 #@! TA.AperFunction,SMDPad,CuDef*
%ADD26RoundRect,0.250000X-0.450000X0.350000X-0.450000X-0.350000X0.450000X-0.350000X0.450000X0.350000X0*%
G04 #@! TD*
G04 #@! TA.AperFunction,SMDPad,CuDef*
%ADD27R,0.800000X1.900000*%
G04 #@! TD*
G04 #@! TA.AperFunction,SMDPad,CuDef*
%ADD28RoundRect,0.250000X-0.412500X-0.650000X0.412500X-0.650000X0.412500X0.650000X-0.412500X0.650000X0*%
G04 #@! TD*
G04 #@! TA.AperFunction,ViaPad*
%ADD29C,0.800000*%
G04 #@! TD*
G04 #@! TA.AperFunction,Conductor*
%ADD30C,0.400000*%
G04 #@! TD*
G04 #@! TA.AperFunction,Conductor*
%ADD31C,0.250000*%
G04 #@! TD*
G04 #@! TA.AperFunction,Conductor*
%ADD32C,0.800000*%
G04 #@! TD*
G04 #@! TA.AperFunction,Conductor*
%ADD33C,0.600000*%
G04 #@! TD*
G04 #@! TA.AperFunction,Conductor*
%ADD34C,1.000000*%
G04 #@! TD*
G04 APERTURE END LIST*
D10*
X154137500Y-103950000D03*
X151162500Y-103950000D03*
D11*
X149212500Y-92650000D03*
X146087500Y-92650000D03*
D12*
X138350000Y-118150000D03*
X140350000Y-118150000D03*
D13*
X158862500Y-110350000D03*
X160937500Y-110350000D03*
D14*
X99050000Y-109950000D03*
X101050000Y-109950000D03*
X103050000Y-109950000D03*
X105050000Y-109950000D03*
X107050000Y-109950000D03*
X109050000Y-109950000D03*
X111050000Y-109950000D03*
X113050000Y-109950000D03*
D15*
X114550000Y-106950000D03*
X114550000Y-104950000D03*
X114550000Y-102950000D03*
X114550000Y-100950000D03*
X114550000Y-98950000D03*
X114550000Y-96950000D03*
D14*
X113050000Y-93950000D03*
X111050000Y-93950000D03*
X109050000Y-93950000D03*
X107050000Y-93950000D03*
X105050000Y-93950000D03*
X103050000Y-93950000D03*
X101050000Y-93950000D03*
X99050000Y-93950000D03*
D16*
X122350000Y-94100000D03*
X120350000Y-94100000D03*
X105000000Y-113400000D03*
X103000000Y-113400000D03*
D17*
X125899999Y-91189999D03*
D18*
X125899999Y-93729999D03*
X125899999Y-96269999D03*
X125899999Y-98809999D03*
X125899999Y-101349999D03*
X125899999Y-103889999D03*
X125899999Y-106429999D03*
X125899999Y-108969999D03*
X125899999Y-111509999D03*
X125899999Y-114049999D03*
D19*
X100500000Y-113462500D03*
X100500000Y-115537500D03*
D20*
X161850000Y-96400000D03*
X161850000Y-94000000D03*
D21*
X150949999Y-95649999D03*
X149999999Y-95649999D03*
X149049999Y-95649999D03*
X149049999Y-98349999D03*
X150949999Y-98349999D03*
D22*
X158599999Y-105699999D03*
D23*
X158599999Y-104499999D03*
X158599999Y-103499999D03*
X158599999Y-102499999D03*
X158599999Y-101499999D03*
D22*
X158599999Y-100299999D03*
D24*
X158799999Y-107299999D03*
X158799999Y-98699999D03*
X162599999Y-107299999D03*
X162599999Y-98699999D03*
D25*
X91700000Y-87600000D03*
X94240000Y-87600000D03*
X96780000Y-87600000D03*
D26*
X152500000Y-91500000D03*
X152500000Y-93500000D03*
D27*
X120449999Y-91699999D03*
X122349999Y-91699999D03*
X121399999Y-88699999D03*
D12*
X105000000Y-116000000D03*
X107000000Y-116000000D03*
D16*
X155550000Y-98200000D03*
X153550000Y-98200000D03*
D28*
X151137500Y-101250000D03*
X154262500Y-101250000D03*
D29*
X138200000Y-118150000D03*
X126500000Y-116400000D03*
X140450000Y-118150000D03*
X116150000Y-89400000D03*
X135250000Y-89400000D03*
X131850000Y-108000000D03*
X134300000Y-89400000D03*
X114350000Y-89400000D03*
X131850000Y-108850000D03*
X150000000Y-94500000D03*
X154450000Y-101650000D03*
X158950000Y-105700000D03*
X158950000Y-100300000D03*
X158150000Y-100300000D03*
X155650000Y-98250000D03*
X161400000Y-96150000D03*
X100150000Y-87600000D03*
X146250000Y-92250000D03*
X154050000Y-100850000D03*
X113050000Y-93450000D03*
X158150000Y-105700000D03*
X113050000Y-94350000D03*
X161050000Y-110350000D03*
X162400000Y-96650000D03*
X99200000Y-87600000D03*
X100500000Y-115500000D03*
X145900000Y-93100000D03*
X113050000Y-109500000D03*
X113050000Y-110400000D03*
X105050000Y-113300000D03*
X101000000Y-108300000D03*
X99800000Y-106750000D03*
X125300000Y-87700000D03*
X122350000Y-94150000D03*
X124100000Y-87700000D03*
X122350000Y-92550000D03*
X109000000Y-102950000D03*
X112200000Y-97650000D03*
X111100000Y-94000000D03*
X155000000Y-92700000D03*
X153550000Y-96000000D03*
X160550000Y-105550000D03*
X160500000Y-100400000D03*
X120400000Y-94100000D03*
X116600000Y-105850000D03*
X125793245Y-117568745D03*
X126500000Y-118500000D03*
X135800000Y-118400000D03*
X118550000Y-103950000D03*
X103050000Y-109900000D03*
X103000000Y-118000000D03*
D30*
X91700000Y-87600000D02*
X91700000Y-89150000D01*
X91700000Y-89150000D02*
X92850000Y-90300000D01*
X92850000Y-90300000D02*
X98200000Y-90300000D01*
X98200000Y-90300000D02*
X99050000Y-91150000D01*
X99050000Y-91150000D02*
X99050000Y-93950000D01*
X94240000Y-87600000D02*
X94240000Y-89040000D01*
X94750000Y-89550000D02*
X99650000Y-89550000D01*
X94240000Y-89040000D02*
X94750000Y-89550000D01*
X99650000Y-89550000D02*
X101050000Y-90950000D01*
X101050000Y-90950000D02*
X101050000Y-93950000D01*
X139700000Y-116400000D02*
X140400000Y-117100000D01*
X126500000Y-116400000D02*
X139700000Y-116400000D01*
X140400000Y-117100000D02*
X140400000Y-118100000D01*
D31*
X140400000Y-118100000D02*
X140350000Y-118150000D01*
D32*
X128750000Y-89400000D02*
X121537500Y-89400000D01*
X114350000Y-89400000D02*
X121537500Y-89400000D01*
X128750000Y-89400000D02*
X135250000Y-89400000D01*
X131850000Y-108000000D02*
X131850000Y-108850000D01*
X129500000Y-108000000D02*
X128750000Y-107250000D01*
X128750000Y-107250000D02*
X128750000Y-89400000D01*
X131850000Y-108000000D02*
X129500000Y-108000000D01*
D33*
X121537500Y-89400000D02*
X121400000Y-89262500D01*
X150000000Y-95862500D02*
X150000000Y-94500000D01*
D31*
X158950000Y-100300000D02*
X158150000Y-100300000D01*
D32*
X99200000Y-87600000D02*
X100200000Y-87600000D01*
X96780000Y-87600000D02*
X99200000Y-87600000D01*
D31*
X105050000Y-113300000D02*
X105000000Y-113350000D01*
D30*
X105000000Y-113350000D02*
X105000000Y-116000000D01*
X101050000Y-109950000D02*
X101050000Y-108350000D01*
X101050000Y-108350000D02*
X101000000Y-108300000D01*
X99800000Y-106750000D02*
X99050000Y-107500000D01*
X99050000Y-107500000D02*
X99050000Y-109950000D01*
D33*
X156500000Y-104000000D02*
X157000000Y-104500000D01*
X158100000Y-101500000D02*
X157000000Y-101500000D01*
X157000000Y-101500000D02*
X156500000Y-102000000D01*
X157000000Y-104500000D02*
X158100000Y-104500000D01*
D32*
X156450000Y-103950000D02*
X154137500Y-103950000D01*
D33*
X156500000Y-102000000D02*
X156500000Y-103500000D01*
X156500000Y-103500000D02*
X156500000Y-104000000D01*
D34*
X149012500Y-92650000D02*
X149250000Y-92412500D01*
X149012500Y-89762500D02*
X154612500Y-89762500D01*
X149250000Y-92412500D02*
X149250000Y-90000000D01*
X154612500Y-89762500D02*
X158900000Y-94050000D01*
X149012500Y-89762500D02*
X147000000Y-87750000D01*
D31*
X149050000Y-92837500D02*
X148862500Y-92650000D01*
D34*
X161800000Y-94050000D02*
X161850000Y-94000000D01*
X149250000Y-90000000D02*
X149012500Y-89762500D01*
D30*
X122350000Y-93550000D02*
X122350000Y-94150000D01*
D32*
X122350000Y-93650000D02*
X122350000Y-92550000D01*
D34*
X158900000Y-94050000D02*
X161800000Y-94050000D01*
D33*
X149050000Y-95862500D02*
X149050000Y-92837500D01*
D34*
X147000000Y-87700000D02*
X124150000Y-87700000D01*
X147000000Y-87750000D02*
X147000000Y-87700000D01*
D32*
X122350000Y-92550000D02*
X122350000Y-92200000D01*
D31*
X109000000Y-102950000D02*
X109000000Y-100850000D01*
X109000000Y-100850000D02*
X112200000Y-97650000D01*
D30*
X155000000Y-92700000D02*
X155000000Y-92100000D01*
X155000000Y-92100000D02*
X154400000Y-91500000D01*
X154400000Y-91500000D02*
X152500000Y-91500000D01*
D32*
X149550000Y-101250000D02*
X149050000Y-100750000D01*
D31*
X149250000Y-96950000D02*
X149050000Y-97150000D01*
D32*
X149050000Y-100750000D02*
X149000000Y-100700000D01*
D31*
X153500000Y-96000000D02*
X152550000Y-96950000D01*
X149050000Y-97150000D02*
X149050000Y-98137500D01*
D32*
X149000000Y-100700000D02*
X149000000Y-99800000D01*
D33*
X149050000Y-98350000D02*
X149050000Y-99750000D01*
D31*
X153550000Y-96000000D02*
X153500000Y-96000000D01*
D32*
X151137500Y-101250000D02*
X149550000Y-101250000D01*
D31*
X152550000Y-96950000D02*
X149250000Y-96950000D01*
X149050000Y-99750000D02*
X149000000Y-99800000D01*
D32*
X151137500Y-101250000D02*
X151137500Y-103937500D01*
D30*
X160550000Y-103800000D02*
X160550000Y-105550000D01*
X158600000Y-103500000D02*
X160250000Y-103500000D01*
X160250000Y-103500000D02*
X160550000Y-103800000D01*
X160250000Y-102500000D02*
X160500000Y-102250000D01*
X158600000Y-102500000D02*
X160250000Y-102500000D01*
X160500000Y-102250000D02*
X160500000Y-100400000D01*
X120450000Y-94050000D02*
X120450000Y-91137500D01*
X120400000Y-94100000D02*
X120450000Y-94050000D01*
D31*
X105050000Y-109550000D02*
X105050000Y-109950000D01*
X108700000Y-105900000D02*
X105050000Y-109550000D01*
X116600000Y-105850000D02*
X116550000Y-105900000D01*
X116550000Y-105900000D02*
X108700000Y-105900000D01*
X114550000Y-100950000D02*
X120420000Y-100950000D01*
X120420000Y-100950000D02*
X125900000Y-106430000D01*
D30*
X150950000Y-95050000D02*
X152500000Y-93500000D01*
X150950000Y-95862500D02*
X150950000Y-95050000D01*
X153487500Y-98137500D02*
X153550000Y-98200000D01*
X150950000Y-98137500D02*
X153487500Y-98137500D01*
D31*
X119670000Y-96270000D02*
X125900000Y-96270000D01*
X104850000Y-91750000D02*
X117050000Y-91750000D01*
X118750000Y-95350000D02*
X119670000Y-96270000D01*
X118750000Y-93450000D02*
X118750000Y-95350000D01*
X103050000Y-93550000D02*
X104850000Y-91750000D01*
X117050000Y-91750000D02*
X118750000Y-93450000D01*
X103050000Y-93950000D02*
X103050000Y-93550000D01*
X125900000Y-98810000D02*
X121174282Y-98810000D01*
X106150000Y-92400000D02*
X105050000Y-93500000D01*
X121174282Y-98810000D02*
X118050480Y-95686197D01*
X118050480Y-93686198D02*
X116764282Y-92400000D01*
X118050480Y-95686197D02*
X118050480Y-93686198D01*
X116764282Y-92400000D02*
X106150000Y-92400000D01*
X105050000Y-93500000D02*
X105050000Y-93950000D01*
X124050000Y-99500000D02*
X125900000Y-101350000D01*
X117000000Y-95500000D02*
X121000000Y-99500000D01*
X109050000Y-95500000D02*
X117000000Y-95500000D01*
X121000000Y-99500000D02*
X124050000Y-99500000D01*
X109050000Y-93950000D02*
X109050000Y-95500000D01*
X125900000Y-103890000D02*
X124390000Y-103890000D01*
X126890000Y-103890000D02*
X127500000Y-104500000D01*
X125900000Y-103890000D02*
X126890000Y-103890000D01*
X119450000Y-98950000D02*
X114550000Y-98950000D01*
X125900000Y-108970000D02*
X127030000Y-108970000D01*
X127500000Y-108500000D02*
X127500000Y-104500000D01*
X127030000Y-108970000D02*
X127500000Y-108500000D01*
X124390000Y-103890000D02*
X119450000Y-98950000D01*
X111050000Y-110300000D02*
X112260000Y-111510000D01*
X112260000Y-111510000D02*
X125900000Y-111510000D01*
X111050000Y-109950000D02*
X111050000Y-110300000D01*
X109000000Y-110000000D02*
X109050000Y-109950000D01*
D30*
X110568745Y-117568745D02*
X109000000Y-116000000D01*
X125793245Y-117568745D02*
X110568745Y-117568745D01*
X109000000Y-116000000D02*
X109000000Y-110000000D01*
X107050000Y-109950000D02*
X107050000Y-115950000D01*
X109400000Y-118500000D02*
X126500000Y-118500000D01*
D31*
X135700000Y-118500000D02*
X135800000Y-118400000D01*
X107050000Y-115950000D02*
X107000000Y-116000000D01*
D30*
X107000000Y-116100000D02*
X109400000Y-118500000D01*
X126500000Y-118500000D02*
X135700000Y-118500000D01*
D31*
X107000000Y-116000000D02*
X107000000Y-116100000D01*
X107050000Y-102600000D02*
X107050000Y-93950000D01*
X108400000Y-103950000D02*
X107050000Y-102600000D01*
X118550000Y-103950000D02*
X108400000Y-103950000D01*
D33*
X103050000Y-109950000D02*
X103050000Y-113350000D01*
X103000000Y-113400000D02*
X100562500Y-113400000D01*
D31*
X103050000Y-109900000D02*
X103050000Y-109950000D01*
D33*
X103050000Y-113350000D02*
X103000000Y-113400000D01*
X103000000Y-113400000D02*
X103000000Y-118000000D01*
X158800000Y-110287500D02*
X158862500Y-110350000D01*
X158800000Y-107300000D02*
X158800000Y-110287500D01*
M02*
