G04 #@! TF.GenerationSoftware,KiCad,Pcbnew,6.99.0-unknown-58b8d63ff8~148~ubuntu20.04.1*
G04 #@! TF.CreationDate,2022-03-11T08:50:32+05:30*
G04 #@! TF.ProjectId,espc3-vario,65737063-332d-4766-9172-696f2e6b6963,rev?*
G04 #@! TF.SameCoordinates,Original*
G04 #@! TF.FileFunction,Soldermask,Top*
G04 #@! TF.FilePolarity,Negative*
%FSLAX46Y46*%
G04 Gerber Fmt 4.6, Leading zero omitted, Abs format (unit mm)*
G04 Created by KiCad (PCBNEW 6.99.0-unknown-58b8d63ff8~148~ubuntu20.04.1) date 2022-03-11 08:50:32*
%MOMM*%
%LPD*%
G01*
G04 APERTURE LIST*
G04 Aperture macros list*
%AMRoundRect*
0 Rectangle with rounded corners*
0 $1 Rounding radius*
0 $2 $3 $4 $5 $6 $7 $8 $9 X,Y pos of 4 corners*
0 Add a 4 corners polygon primitive as box body*
4,1,4,$2,$3,$4,$5,$6,$7,$8,$9,$2,$3,0*
0 Add four circle primitives for the rounded corners*
1,1,$1+$1,$2,$3*
1,1,$1+$1,$4,$5*
1,1,$1+$1,$6,$7*
1,1,$1+$1,$8,$9*
0 Add four rect primitives between the rounded corners*
20,1,$1+$1,$2,$3,$4,$5,0*
20,1,$1+$1,$4,$5,$6,$7,0*
20,1,$1+$1,$6,$7,$8,$9,0*
20,1,$1+$1,$8,$9,$2,$3,0*%
G04 Aperture macros list end*
%ADD10RoundRect,0.250001X0.462499X0.624999X-0.462499X0.624999X-0.462499X-0.624999X0.462499X-0.624999X0*%
%ADD11RoundRect,0.250000X0.412500X0.650000X-0.412500X0.650000X-0.412500X-0.650000X0.412500X-0.650000X0*%
%ADD12RoundRect,0.250000X-0.350000X-0.450000X0.350000X-0.450000X0.350000X0.450000X-0.350000X0.450000X0*%
%ADD13RoundRect,0.250000X-0.337500X-0.475000X0.337500X-0.475000X0.337500X0.475000X-0.337500X0.475000X0*%
%ADD14RoundRect,0.275000X0.275000X-0.625000X0.275000X0.625000X-0.275000X0.625000X-0.275000X-0.625000X0*%
%ADD15RoundRect,0.275000X-0.625000X-0.275000X0.625000X-0.275000X0.625000X0.275000X-0.625000X0.275000X0*%
%ADD16RoundRect,0.250000X0.350000X0.450000X-0.350000X0.450000X-0.350000X-0.450000X0.350000X-0.450000X0*%
%ADD17R,1.700000X1.700000*%
%ADD18O,1.700000X1.700000*%
%ADD19C,2.500000*%
%ADD20RoundRect,0.250000X-0.475000X0.337500X-0.475000X-0.337500X0.475000X-0.337500X0.475000X0.337500X0*%
%ADD21RoundRect,0.381000X0.762000X0.381000X-0.762000X0.381000X-0.762000X-0.381000X0.762000X-0.381000X0*%
%ADD22RoundRect,0.050000X-0.325000X0.780000X-0.325000X-0.780000X0.325000X-0.780000X0.325000X0.780000X0*%
%ADD23RoundRect,0.050000X0.750000X-0.400000X0.750000X0.400000X-0.750000X0.400000X-0.750000X-0.400000X0*%
%ADD24R,1.500000X0.700000*%
%ADD25RoundRect,0.050000X0.750000X-0.350000X0.750000X0.350000X-0.750000X0.350000X-0.750000X-0.350000X0*%
%ADD26O,1.800000X1.000000*%
%ADD27RoundRect,0.375000X0.375000X-0.875000X0.375000X0.875000X-0.375000X0.875000X-0.375000X-0.875000X0*%
%ADD28RoundRect,0.250000X-0.450000X0.350000X-0.450000X-0.350000X0.450000X-0.350000X0.450000X0.350000X0*%
%ADD29RoundRect,0.050000X0.400000X-0.950000X0.400000X0.950000X-0.400000X0.950000X-0.400000X-0.950000X0*%
%ADD30RoundRect,0.250000X-0.412500X-0.650000X0.412500X-0.650000X0.412500X0.650000X-0.412500X0.650000X0*%
G04 APERTURE END LIST*
D10*
X154137500Y-103950000D03*
X151162500Y-103950000D03*
D11*
X149212500Y-92650000D03*
X146087500Y-92650000D03*
D12*
X138350000Y-118150000D03*
X140350000Y-118150000D03*
D13*
X158862500Y-110350000D03*
X160937500Y-110350000D03*
D14*
X99050000Y-109950000D03*
X101050000Y-109950000D03*
X103050000Y-109950000D03*
X105050000Y-109950000D03*
X107050000Y-109950000D03*
X109050000Y-109950000D03*
X111050000Y-109950000D03*
X113050000Y-109950000D03*
D15*
X114550000Y-106950000D03*
X114550000Y-104950000D03*
X114550000Y-102950000D03*
X114550000Y-100950000D03*
X114550000Y-98950000D03*
X114550000Y-96950000D03*
D14*
X113050000Y-93950000D03*
X111050000Y-93950000D03*
X109050000Y-93950000D03*
X107050000Y-93950000D03*
X105050000Y-93950000D03*
X103050000Y-93950000D03*
X101050000Y-93950000D03*
X99050000Y-93950000D03*
D16*
X122350000Y-94100000D03*
X120350000Y-94100000D03*
X105000000Y-113400000D03*
X103000000Y-113400000D03*
D17*
X125899999Y-91189999D03*
D18*
X125899999Y-93729999D03*
X125899999Y-96269999D03*
X125899999Y-98809999D03*
X125899999Y-101349999D03*
X125899999Y-103889999D03*
X125899999Y-106429999D03*
X125899999Y-108969999D03*
X125899999Y-111509999D03*
X125899999Y-114049999D03*
D19*
X147000000Y-117250000D03*
D20*
X100500000Y-113462500D03*
X100500000Y-115537500D03*
D21*
X161850000Y-96400000D03*
X161850000Y-94000000D03*
D22*
X150950000Y-95650000D03*
X150000000Y-95650000D03*
X149050000Y-95650000D03*
X149050000Y-98350000D03*
X150950000Y-98350000D03*
D23*
X158600000Y-105700000D03*
D24*
X158599999Y-104499999D03*
D25*
X158600000Y-103500000D03*
X158600000Y-102500000D03*
X158600000Y-101500000D03*
D23*
X158600000Y-100300000D03*
D26*
X158799999Y-107299999D03*
X158799999Y-98699999D03*
X162599999Y-107299999D03*
X162599999Y-98699999D03*
D27*
X91700000Y-87600000D03*
X94240000Y-87600000D03*
X96780000Y-87600000D03*
D28*
X152500000Y-91500000D03*
X152500000Y-93500000D03*
D29*
X120450000Y-91700000D03*
X122350000Y-91700000D03*
X121400000Y-88700000D03*
D12*
X105000000Y-116000000D03*
X107000000Y-116000000D03*
D19*
X107000000Y-88750000D03*
D16*
X155550000Y-98200000D03*
X153550000Y-98200000D03*
D30*
X151137500Y-101250000D03*
X154262500Y-101250000D03*
M02*
